<svg width="20" height="16" viewBox="0 0 20 16" fill="none" xmlns="http://www.w3.org/2000/svg">
<g clip-path="url(#clip0_3:254)">
<path d="M20 13.6V15.2C20 15.4167 19.9209 15.6042 19.7625 15.7625C19.6042 15.9208 19.4167 16 19.2 16H1.60005C1.38338 16 1.19588 15.9208 1.03755 15.7625C0.879215 15.6042 0.800049 15.4167 0.800049 15.2V13.6C0.800049 13.3833 0.879215 13.1958 1.03755 13.0375C1.19588 12.8792 1.38338 12.8 1.60005 12.8H19.2C19.4167 12.8 19.6042 12.8792 19.7625 13.0375C19.9209 13.1958 20 13.3833 20 13.6ZM20 7.2V8.8C20 9.01667 19.9209 9.20417 19.7625 9.3625C19.6042 9.52083 19.4167 9.6 19.2 9.6H1.60005C1.38338 9.6 1.19588 9.52083 1.03755 9.3625C0.879215 9.20417 0.800049 9.01667 0.800049 8.8V7.2C0.800049 6.98333 0.879215 6.79583 1.03755 6.6375C1.19588 6.47917 1.38338 6.4 1.60005 6.4H19.2C19.4167 6.4 19.6042 6.47917 19.7625 6.6375C19.9209 6.79583 20 6.98333 20 7.2ZM20 0.8V2.4C20 2.61667 19.9209 2.80417 19.7625 2.9625C19.6042 3.12083 19.4167 3.2 19.2 3.2H1.60005C1.38338 3.2 1.19588 3.12083 1.03755 2.9625C0.879215 2.80417 0.800049 2.61667 0.800049 2.4V0.8C0.800049 0.583333 0.879215 0.395833 1.03755 0.2375C1.19588 0.0791667 1.38338 0 1.60005 0H19.2C19.4167 0 19.6042 0.0791667 19.7625 0.2375C19.9209 0.395833 20 0.583333 20 0.8Z" fill="#F8F8F8"/>
</g>
<defs>
<clipPath id="clip0_3:254">
<rect width="19.2" height="16" fill="white" transform="translate(0.800049)"/>
</clipPath>
</defs>
</svg>
