<svg width="21" height="16" viewBox="0 0 21 16" fill="none" xmlns="http://www.w3.org/2000/svg">
<path d="M20.7969 5.15909V14.1818C20.7969 14.6818 20.6188 15.1098 20.2628 15.4659C19.9067 15.822 19.4787 16 18.9787 16H2.25141C1.75141 16 1.32338 15.822 0.967318 15.4659C0.611258 15.1098 0.433228 14.6818 0.433228 14.1818V5.15909C0.766561 5.5303 1.14914 5.85985 1.58095 6.14773C4.32338 8.01136 6.20595 9.31818 7.22868 10.0682C7.6605 10.3864 8.01088 10.6345 8.27982 10.8125C8.54876 10.9905 8.90671 11.1723 9.35368 11.358C9.80065 11.5436 10.2173 11.6364 10.6037 11.6364H10.6264C11.0128 11.6364 11.4294 11.5436 11.8764 11.358C12.3234 11.1723 12.6813 10.9905 12.9503 10.8125C13.2192 10.6345 13.5696 10.3864 14.0014 10.0682C15.2893 9.13636 17.1757 7.82955 19.6605 6.14773C20.0923 5.85227 20.4711 5.52273 20.7969 5.15909ZM20.7969 1.81818C20.7969 2.41667 20.6113 2.98864 20.24 3.53409C19.8688 4.07955 19.4067 4.54545 18.8537 4.93182C16.0052 6.90909 14.2325 8.14015 13.5355 8.625C13.4597 8.67803 13.2988 8.79356 13.0525 8.97159C12.8063 9.14962 12.6018 9.29356 12.4389 9.40341C12.276 9.51326 12.0791 9.63636 11.848 9.77273C11.6169 9.90909 11.3991 10.0114 11.1946 10.0795C10.99 10.1477 10.8007 10.1818 10.6264 10.1818H10.6037C10.4294 10.1818 10.24 10.1477 10.0355 10.0795C9.83095 10.0114 9.61315 9.90909 9.38209 9.77273C9.15103 9.63636 8.95406 9.51326 8.79118 9.40341C8.6283 9.29356 8.42376 9.14962 8.17755 8.97159C7.93133 8.79356 7.77035 8.67803 7.69459 8.625C7.0052 8.14015 6.01277 7.44886 4.71732 6.55114C3.42186 5.65341 2.64535 5.11364 2.38777 4.93182C1.91808 4.61364 1.47489 4.17614 1.05823 3.61932C0.641561 3.0625 0.433228 2.54545 0.433228 2.06818C0.433228 1.47727 0.590425 0.984848 0.904818 0.590909C1.21921 0.19697 1.66808 0 2.25141 0H18.9787C19.4711 0 19.8972 0.17803 20.2571 0.534091C20.6169 0.890152 20.7969 1.31818 20.7969 1.81818Z" fill="#1E2736"/>
</svg>
