<svg width="21" height="16" viewBox="0 0 21 16" fill="none" xmlns="http://www.w3.org/2000/svg">
<g clip-path="url(#clip0_3:190)">
<path d="M20.3668 5.15909V14.1818C20.3668 14.6818 20.1888 15.1098 19.8327 15.4659C19.4767 15.822 19.0486 16 18.5486 16H1.82136C1.32136 16 0.893333 15.822 0.537272 15.4659C0.181212 15.1098 0.00318146 14.6818 0.00318146 14.1818V5.15909C0.336515 5.5303 0.719091 5.85985 1.15091 6.14773C3.89333 8.01136 5.77591 9.31818 6.79864 10.0682C7.23045 10.3864 7.58083 10.6345 7.84977 10.8125C8.11871 10.9905 8.47667 11.1723 8.92364 11.358C9.37061 11.5436 9.78727 11.6364 10.1736 11.6364H10.1964C10.5827 11.6364 10.9994 11.5436 11.4464 11.358C11.8933 11.1723 12.2513 10.9905 12.5202 10.8125C12.7892 10.6345 13.1395 10.3864 13.5714 10.0682C14.8592 9.13636 16.7456 7.82955 19.2305 6.14773C19.6623 5.85227 20.0411 5.52273 20.3668 5.15909ZM20.3668 1.81818C20.3668 2.41667 20.1812 2.98864 19.81 3.53409C19.4388 4.07955 18.9767 4.54545 18.4236 4.93182C15.5752 6.90909 13.8024 8.14015 13.1055 8.625C13.0297 8.67803 12.8687 8.79356 12.6225 8.97159C12.3763 9.14962 12.1717 9.29356 12.0089 9.40341C11.846 9.51326 11.649 9.63636 11.418 9.77273C11.1869 9.90909 10.9691 10.0114 10.7645 10.0795C10.56 10.1477 10.3706 10.1818 10.1964 10.1818H10.1736C9.99939 10.1818 9.81 10.1477 9.60545 10.0795C9.40091 10.0114 9.18311 9.90909 8.95204 9.77273C8.72098 9.63636 8.52401 9.51326 8.36114 9.40341C8.19826 9.29356 7.99371 9.14962 7.7475 8.97159C7.50129 8.79356 7.3403 8.67803 7.26454 8.625C6.57515 8.14015 5.58273 7.44886 4.28727 6.55114C2.99182 5.65341 2.2153 5.11364 1.95773 4.93182C1.48803 4.61364 1.04485 4.17614 0.628181 3.61932C0.211515 3.0625 0.00318146 2.54545 0.00318146 2.06818C0.00318146 1.47727 0.160378 0.984848 0.474772 0.590909C0.789166 0.19697 1.23803 0 1.82136 0H18.5486C19.0411 0 19.4672 0.17803 19.827 0.534091C20.1869 0.890152 20.3668 1.31818 20.3668 1.81818Z" fill="#F8F8F8"/>
</g>
<defs>
<clipPath id="clip0_3:190">
<rect width="20.37" height="16" fill="white"/>
</clipPath>
</defs>
</svg>
