<svg width="17" height="16" viewBox="0 0 17 16" fill="none" xmlns="http://www.w3.org/2000/svg">
<g clip-path="url(#clip0_3:274)">
<path d="M8.17333 0C9.65559 0 11.0226 0.365248 12.2744 1.09574C13.5262 1.82624 14.5173 2.81738 15.2478 4.06915C15.9783 5.32092 16.3435 6.68794 16.3435 8.17021C16.3435 9.95035 15.824 11.5514 14.785 12.9734C13.746 14.3954 12.4038 15.3794 10.7584 15.9255C10.5669 15.961 10.4251 15.9362 10.3329 15.8511C10.2407 15.766 10.1946 15.6596 10.1946 15.5319C10.1946 15.5106 10.1964 15.2394 10.1999 14.7181C10.2035 14.1968 10.2052 13.7199 10.2052 13.2872C10.2052 12.5993 10.0208 12.0957 9.65205 11.7766C10.0563 11.734 10.4198 11.6702 10.7425 11.5851C11.0652 11.5 11.3985 11.3617 11.7425 11.1702C12.0864 10.9787 12.3737 10.7429 12.6042 10.4628C12.8347 10.1826 13.0226 9.81028 13.168 9.34574C13.3134 8.88121 13.3861 8.34752 13.3861 7.74468C13.3861 6.90071 13.1059 6.17021 12.5457 5.55319C12.8081 4.9078 12.7797 4.1844 12.4606 3.38298C12.262 3.31915 11.9747 3.35816 11.5989 3.5C11.223 3.64184 10.8967 3.79787 10.6201 3.96809L10.2159 4.2234C9.5563 4.03901 8.87545 3.94681 8.17333 3.94681C7.4712 3.94681 6.79035 4.03901 6.13077 4.2234C6.0173 4.14539 5.86659 4.04965 5.67864 3.93617C5.4907 3.8227 5.1946 3.68617 4.79035 3.5266C4.38609 3.36702 4.08467 3.31915 3.88609 3.38298C3.56694 4.1844 3.53857 4.9078 3.80099 5.55319C3.2407 6.17021 2.96056 6.90071 2.96056 7.74468C2.96056 8.34752 3.03325 8.87943 3.17864 9.34043C3.32403 9.80142 3.5102 10.1738 3.73716 10.4574C3.96411 10.7411 4.24957 10.9787 4.59354 11.1702C4.93751 11.3617 5.27084 11.5 5.59354 11.5851C5.91623 11.6702 6.27971 11.734 6.68396 11.7766C6.40737 12.0319 6.23361 12.3972 6.16269 12.8723C6.01375 12.9433 5.85418 12.9965 5.68396 13.0319C5.51375 13.0674 5.31162 13.0851 5.07758 13.0851C4.84354 13.0851 4.61127 13.0089 4.38077 12.8564C4.15028 12.7039 3.95347 12.4823 3.79035 12.1915C3.65559 11.9645 3.48361 11.7801 3.27439 11.6383C3.06517 11.4965 2.88964 11.4113 2.74779 11.383L2.53503 11.3511C2.38609 11.3511 2.28325 11.367 2.22652 11.3989C2.16978 11.4309 2.15205 11.4716 2.17333 11.5213C2.1946 11.5709 2.22652 11.6206 2.26907 11.6702C2.31162 11.7199 2.35772 11.7624 2.40737 11.7979L2.48184 11.8511C2.63786 11.922 2.79212 12.0567 2.9446 12.2553C3.09708 12.4539 3.20879 12.6348 3.27971 12.7979L3.38609 13.0426C3.47829 13.3121 3.63432 13.5301 3.85418 13.6968C4.07403 13.8635 4.31162 13.9699 4.56694 14.016C4.82226 14.0621 5.06872 14.0869 5.3063 14.0904C5.54389 14.094 5.7407 14.0816 5.89673 14.0532L6.14141 14.0106C6.14141 14.2801 6.14318 14.594 6.14673 14.9521C6.15028 15.3103 6.15205 15.5035 6.15205 15.5319C6.15205 15.6596 6.10595 15.766 6.01375 15.8511C5.92155 15.9362 5.77971 15.961 5.58822 15.9255C3.94283 15.3794 2.60063 14.3954 1.56162 12.9734C0.522616 11.5514 0.00311279 9.95035 0.00311279 8.17021C0.00311279 6.68794 0.368361 5.32092 1.09886 4.06915C1.82935 2.81738 2.82049 1.82624 4.07226 1.09574C5.32403 0.365248 6.69106 0 8.17333 0ZM3.09886 11.734C3.12013 11.6844 3.09531 11.6418 3.02439 11.6064C2.95347 11.5851 2.90737 11.5922 2.88609 11.6277C2.86481 11.6773 2.88964 11.7199 2.96056 11.7553C3.02439 11.7979 3.07049 11.7908 3.09886 11.734ZM3.42864 12.0957C3.47829 12.0603 3.4712 12.0035 3.40737 11.9255C3.33645 11.8617 3.27971 11.8511 3.23716 11.8936C3.18751 11.9291 3.1946 11.9858 3.25843 12.0638C3.32935 12.1348 3.38609 12.1454 3.42864 12.0957ZM3.74779 12.5745C3.81162 12.5248 3.81162 12.4574 3.74779 12.3723C3.69106 12.2801 3.63077 12.2589 3.56694 12.3085C3.50311 12.344 3.50311 12.4078 3.56694 12.5C3.63077 12.5922 3.69106 12.617 3.74779 12.5745ZM4.1946 13.0213C4.25134 12.9645 4.23716 12.8972 4.15205 12.8191C4.06694 12.734 3.99602 12.7234 3.93928 12.7872C3.87545 12.844 3.88964 12.9113 3.98184 12.9894C4.06694 13.0745 4.13786 13.0851 4.1946 13.0213ZM4.80098 13.2872C4.82226 13.2092 4.77616 13.1525 4.66269 13.117C4.5563 13.0887 4.48893 13.1135 4.46056 13.1915C4.43219 13.2695 4.47829 13.3227 4.59886 13.3511C4.70524 13.3936 4.77262 13.3723 4.80098 13.2872ZM5.4712 13.3404C5.4712 13.2482 5.41091 13.2092 5.29035 13.2234C5.17687 13.2234 5.12013 13.2624 5.12013 13.3404C5.12013 13.4326 5.18042 13.4716 5.30098 13.4574C5.41446 13.4574 5.4712 13.4184 5.4712 13.3404ZM6.08822 13.234C6.07403 13.156 6.0102 13.1241 5.89673 13.1383C5.78325 13.1596 5.73361 13.2128 5.74779 13.2979C5.76198 13.383 5.82581 13.4113 5.93928 13.383C6.05276 13.3546 6.1024 13.305 6.08822 13.234Z" fill="#F8F8F8"/>
</g>
<defs>
<clipPath id="clip0_3:274">
<rect width="16.3467" height="16" fill="white"/>
</clipPath>
</defs>
</svg>
