<svg width="17" height="16" viewBox="0 0 17 16" fill="none" xmlns="http://www.w3.org/2000/svg">
<g clip-path="url(#clip0_3:270)">
<path d="M3.71588 5.28724V15.8298H0.20524V5.28724H3.71588ZM3.93928 2.03192C3.94638 2.54965 3.7673 2.98227 3.40205 3.32979C3.0368 3.67731 2.5563 3.85107 1.96056 3.85107H1.93928C1.35772 3.85107 0.889638 3.67731 0.535028 3.32979C0.180418 2.98227 0.00311279 2.54965 0.00311279 2.03192C0.00311279 1.50709 0.185737 1.0727 0.550985 0.728726C0.916233 0.384754 1.39318 0.212769 1.98184 0.212769C2.57049 0.212769 3.04212 0.384754 3.39673 0.728726C3.75134 1.0727 3.93219 1.50709 3.93928 2.03192ZM16.3435 9.78724V15.8298H12.8435V10.1915C12.8435 9.44681 12.6999 8.86348 12.4127 8.44149C12.1255 8.01951 11.6769 7.80851 11.0669 7.80851C10.6201 7.80851 10.246 7.93085 9.9446 8.17553C9.64318 8.42021 9.41801 8.72341 9.26907 9.08511C9.19106 9.29787 9.15205 9.58511 9.15205 9.94681V15.8298H5.65205C5.66623 13 5.67333 10.7057 5.67333 8.94681C5.67333 7.18795 5.66978 6.1383 5.66269 5.79787L5.65205 5.28724H9.15205V6.81915H9.13077C9.27262 6.5922 9.41801 6.39362 9.56694 6.22341C9.71588 6.05319 9.91623 5.8688 10.168 5.67022C10.4198 5.47163 10.7283 5.31738 11.0935 5.20745C11.4588 5.09752 11.8648 5.04256 12.3116 5.04256C13.5244 5.04256 14.4996 5.44504 15.2372 6.25C15.9747 7.05497 16.3435 8.23405 16.3435 9.78724Z" fill="#F8F8F8"/>
</g>
<defs>
<clipPath id="clip0_3:270">
<rect width="16.3467" height="16" fill="white"/>
</clipPath>
</defs>
</svg>
