<svg width="17" height="16" viewBox="0 0 17 16" fill="#fff" xmlns="http://www.w3.org/2000/svg">
<g clip-path="url(#clip0_3:242)">
<path d="M11.5069 6.76923C11.5069 5.58333 11.0854 4.56891 10.2424 3.72596C9.39948 2.88301 8.38506 2.46154 7.19916 2.46154C6.01327 2.46154 4.99884 2.88301 4.15589 3.72596C3.31294 4.56891 2.89147 5.58333 2.89147 6.76923C2.89147 7.95513 3.31294 8.96955 4.15589 9.8125C4.99884 10.6554 6.01327 11.0769 7.19916 11.0769C8.38506 11.0769 9.39948 10.6554 10.2424 9.8125C11.0854 8.96955 11.5069 7.95513 11.5069 6.76923ZM16.4299 14.7692C16.4299 15.1026 16.3081 15.391 16.0645 15.6346C15.821 15.8782 15.5325 16 15.1992 16C14.853 16 14.5645 15.8782 14.3338 15.6346L11.0357 12.3462C9.88827 13.141 8.60942 13.5385 7.19916 13.5385C6.2825 13.5385 5.40589 13.3606 4.56936 13.0048C3.73282 12.649 3.01166 12.1683 2.40589 11.5625C1.80012 10.9567 1.31935 10.2356 0.963585 9.39904C0.607816 8.5625 0.429932 7.6859 0.429932 6.76923C0.429932 5.85256 0.607816 4.97596 0.963585 4.13942C1.31935 3.30288 1.80012 2.58173 2.40589 1.97596C3.01166 1.37019 3.73282 0.889423 4.56936 0.533654C5.40589 0.177885 6.2825 0 7.19916 0C8.11583 0 8.99243 0.177885 9.82897 0.533654C10.6655 0.889423 11.3867 1.37019 11.9924 1.97596C12.5982 2.58173 13.079 3.30288 13.4347 4.13942C13.7905 4.97596 13.9684 5.85256 13.9684 6.76923C13.9684 8.17949 13.571 9.45833 12.7761 10.6058L16.0742 13.9038C16.3113 14.141 16.4299 14.4295 16.4299 14.7692Z" fill=""/>
</g>
<defs>
<clipPath id="clip0_3:242">
<rect width="16" height="16" fill="white" transform="translate(0.429932)"/>
</clipPath>
</defs>
</svg>
