<svg width="20" height="16" viewBox="0 0 20 16" fill="none" xmlns="http://www.w3.org/2000/svg">
<g clip-path="url(#clip0_3:262)">
<path d="M19.85 1.9C19.2916 2.71667 18.6166 3.4125 17.825 3.9875C17.8333 4.10417 17.8375 4.27917 17.8375 4.5125C17.8375 5.59583 17.6791 6.67708 17.3625 7.75625C17.0458 8.83542 16.5645 9.87083 15.9187 10.8625C15.2729 11.8542 14.5041 12.7312 13.6125 13.4938C12.7208 14.2563 11.6458 14.8646 10.3875 15.3188C9.12913 15.7729 7.7833 16 6.34996 16C4.09163 16 2.02496 15.3958 0.149963 14.1875C0.44163 14.2208 0.76663 14.2375 1.12496 14.2375C2.99996 14.2375 4.6708 13.6625 6.13746 12.5125C5.26246 12.4958 4.47913 12.2271 3.78746 11.7063C3.0958 11.1854 2.6208 10.5208 2.36246 9.7125C2.63746 9.75417 2.89163 9.775 3.12496 9.775C3.4833 9.775 3.83746 9.72917 4.18746 9.6375C3.25413 9.44583 2.48121 8.98125 1.86871 8.24375C1.25621 7.50625 0.949963 6.65 0.949963 5.675V5.625C1.51663 5.94167 2.12496 6.1125 2.77496 6.1375C2.22496 5.77083 1.78746 5.29167 1.46246 4.7C1.13746 4.10833 0.974963 3.46667 0.974963 2.775C0.974963 2.04167 1.1583 1.3625 1.52496 0.7375C2.5333 1.97917 3.76038 2.97292 5.20621 3.71875C6.65205 4.46458 8.19996 4.87917 9.84996 4.9625C9.7833 4.64583 9.74996 4.3375 9.74996 4.0375C9.74996 2.92083 10.1437 1.96875 10.9312 1.18125C11.7187 0.39375 12.6708 0 13.7875 0C14.9541 0 15.9375 0.425 16.7375 1.275C17.6458 1.1 18.5 0.775 19.3 0.3C18.9916 1.25833 18.4 2 17.525 2.525C18.3 2.44167 19.075 2.23333 19.85 1.9Z" fill="#F8F8F8"/>
</g>
<defs>
<clipPath id="clip0_3:262">
<rect width="20" height="16" fill="white"/>
</clipPath>
</defs>
</svg>
