<svg width="134" height="122" viewBox="0 0 134 122" fill="none" xmlns="http://www.w3.org/2000/svg">
<path d="M18.62 35.1C13.1799 37.2867 8.52256 41.0578 5.25214 45.9241C1.98173 50.7903 0.249227 56.5271 0.27941 62.3901C0.309593 68.2532 2.10107 73.9718 5.42141 78.8042C8.74175 83.6365 13.4377 87.3594 18.9 89.49C14.5624 81.09 12.2757 71.7823 12.227 62.3286C12.1784 52.875 14.3691 43.5442 18.62 35.1Z" fill="#0098A1"/>
<path d="M73 120.75C105.999 120.75 132.75 93.999 132.75 61C132.75 28.001 105.999 1.25 73 1.25C40.001 1.25 13.25 28.001 13.25 61C13.25 93.999 40.001 120.75 73 120.75Z" fill="#F8F8F8" stroke="#001640" stroke-width="2" stroke-miterlimit="10"/>
<path d="M97.25 32.32C97.2474 32.1547 97.1798 31.997 97.062 31.881C96.9441 31.765 96.7854 31.7 96.62 31.7H41.85C41.6978 31.7193 41.558 31.7934 41.4566 31.9085C41.3552 32.0235 41.2992 32.1716 41.2992 32.325C41.2992 32.4784 41.3552 32.6265 41.4566 32.7415C41.558 32.8566 41.6978 32.9307 41.85 32.95H96.62C96.7871 32.95 96.9473 32.8836 97.0655 32.7655C97.1836 32.6473 97.25 32.4871 97.25 32.32ZM85.34 50.67C85.4287 50.6744 85.5173 50.66 85.6001 50.6278C85.6828 50.5956 85.7578 50.5462 85.8201 50.4829C85.8825 50.4196 85.9307 50.3439 85.9617 50.2607C85.9927 50.1775 86.0057 50.0886 86 50V42C86.0151 41.9207 86.0151 41.8393 86 41.76C85.9715 41.682 85.9263 41.6111 85.8676 41.5524C85.8089 41.4937 85.738 41.4485 85.66 41.42C85.5808 41.4038 85.4992 41.4038 85.42 41.42H77.42C77.3313 41.4088 77.2412 41.4165 77.1557 41.4428C77.0702 41.4691 76.9913 41.5132 76.9243 41.5724C76.8572 41.6315 76.8034 41.7042 76.7666 41.7857C76.7298 41.8672 76.7108 41.9556 76.7108 42.045C76.7108 42.1344 76.7298 42.2228 76.7666 42.3043C76.8034 42.3858 76.8572 42.4585 76.9243 42.5177C76.9913 42.5768 77.0702 42.6209 77.1557 42.6472C77.2412 42.6735 77.3313 42.6813 77.42 42.67H83.96L72.46 54L63.24 44.78C63.1239 44.6739 62.9723 44.6151 62.815 44.6151C62.6577 44.6151 62.5061 44.6739 62.39 44.78L54.09 51.7C53.6412 51.3228 53.0773 51.1098 52.4912 51.0959C51.9051 51.082 51.3318 51.2681 50.8656 51.6236C50.3994 51.9792 50.0682 52.4828 49.9266 53.0517C49.7849 53.6206 49.8412 54.2207 50.0862 54.7534C50.3312 55.286 50.7503 55.7192 51.2744 55.9818C51.7986 56.2444 52.3966 56.3207 52.9698 56.1981C53.5431 56.0754 54.0575 55.7612 54.4284 55.3071C54.7992 54.8531 55.0043 54.2862 55.01 53.7C55.0142 53.3573 54.9496 53.0173 54.82 52.7L62.75 46.1L72 55.32C72.1217 55.4349 72.2826 55.4993 72.45 55.5C72.5316 55.5004 72.6124 55.4847 72.6879 55.4539C72.7634 55.423 72.8321 55.3775 72.89 55.32L84.72 43.5V50C84.7146 50.0852 84.7265 50.1706 84.7551 50.2511C84.7837 50.3315 84.8283 50.4053 84.8863 50.468C84.9443 50.5306 85.0144 50.5808 85.0924 50.6156C85.1704 50.6503 85.2546 50.6688 85.34 50.67ZM52.42 55C52.155 55 51.8959 54.9214 51.6755 54.7742C51.4552 54.6269 51.2834 54.4177 51.182 54.1728C51.0806 53.928 51.054 53.6585 51.1057 53.3986C51.1574 53.1387 51.2851 52.8999 51.4725 52.7125C51.6599 52.5251 51.8986 52.3975 52.1586 52.3458C52.4185 52.2941 52.6879 52.3206 52.9328 52.422C53.1776 52.5234 53.3869 52.6952 53.5342 52.9155C53.6814 53.1359 53.76 53.395 53.76 53.66C53.76 53.836 53.7253 54.0102 53.658 54.1728C53.5907 54.3354 53.492 54.4831 53.3675 54.6075C53.2431 54.732 53.0954 54.8307 52.9328 54.898C52.7702 54.9653 52.596 55 52.42 55ZM106.09 79C105.923 79 105.763 79.0664 105.645 79.1845C105.526 79.3027 105.46 79.4629 105.46 79.63V90.23C105.46 90.2973 105.434 90.3619 105.387 90.4104C105.341 90.4589 105.277 90.4874 105.21 90.49H74.28C74.211 90.49 74.1449 90.4626 74.0961 90.4139C74.0474 90.3651 74.02 90.299 74.02 90.23V79.64C74.0312 79.5513 74.0235 79.4612 73.9972 79.3757C73.9709 79.2903 73.9268 79.2114 73.8676 79.1443C73.8085 79.0772 73.7358 79.0234 73.6543 78.9866C73.5728 78.9498 73.4844 78.9308 73.395 78.9308C73.3056 78.9308 73.2172 78.9498 73.1357 78.9866C73.0542 79.0234 72.9815 79.0772 72.9223 79.1443C72.8632 79.2114 72.8191 79.2903 72.7928 79.3757C72.7665 79.4612 72.7587 79.5513 72.77 79.64V82.51L69.53 80.81C69.467 80.801 69.403 80.801 69.34 80.81C69.484 80.7885 69.6156 80.7162 69.711 80.6062C69.8063 80.4962 69.8592 80.3556 69.86 80.21V68.66C69.8407 68.5079 69.7666 68.368 69.6515 68.2666C69.5365 68.1652 69.3884 68.1092 69.235 68.1092C69.0816 68.1092 68.9335 68.1652 68.8185 68.2666C68.7034 68.368 68.6293 68.5079 68.61 68.66V80.16C68.6108 80.3056 68.6636 80.4462 68.759 80.5562C68.8544 80.6662 68.986 80.7385 69.13 80.76C69.067 80.751 69.003 80.751 68.94 80.76L57.67 86.67C57.5966 86.7069 57.5315 86.7582 57.4784 86.8209C57.4254 86.8835 57.3855 86.9562 57.3612 87.0347C57.3369 87.1131 57.3287 87.1956 57.3371 87.2773C57.3455 87.359 57.3703 87.4381 57.41 87.51C57.4868 87.656 57.6178 87.7661 57.7748 87.8166C57.9319 87.8671 58.1025 87.854 58.25 87.78L69.25 82.02L72.78 83.87V90.19C72.7826 90.5897 72.9425 90.9722 73.2252 91.2548C73.5078 91.5375 73.8903 91.6974 74.29 91.7H105.22C105.62 91.6974 106.002 91.5375 106.285 91.2548C106.567 90.9722 106.727 90.5897 106.73 90.19V79.64C106.731 79.5556 106.716 79.4718 106.684 79.3935C106.652 79.3152 106.605 79.2442 106.546 79.1845C106.486 79.1248 106.415 79.0777 106.337 79.046C106.258 79.0143 106.174 78.9987 106.09 79Z" fill="#002148"/>
<path d="M94.6 63.11H94V37.11C93.9807 36.9578 93.9066 36.8179 93.7915 36.7165C93.6765 36.6151 93.5284 36.5592 93.375 36.5592C93.2216 36.5592 93.0735 36.6151 92.9585 36.7165C92.8434 36.8179 92.7693 36.9578 92.75 37.11V63.11H84.88C84.6817 63.11 84.4853 63.149 84.3021 63.2249C84.1189 63.3008 83.9525 63.412 83.8123 63.5523C83.672 63.6925 83.5608 63.8589 83.4849 64.0421C83.409 64.2253 83.37 64.4217 83.37 64.62V65.52H46.68C46.4148 65.52 46.1604 65.4146 45.9729 65.2271C45.7853 65.0396 45.68 64.7852 45.68 64.52V37.15C45.6607 36.9978 45.5866 36.8579 45.4715 36.7565C45.3565 36.6551 45.2084 36.5992 45.055 36.5992C44.9016 36.5992 44.7535 36.6551 44.6385 36.7565C44.5234 36.8579 44.4493 36.9978 44.43 37.15V64.54C44.43 65.1323 44.6646 65.7006 45.0825 66.1204C45.5005 66.5402 46.0676 66.7773 46.66 66.78H83.37V67.27C83.37 67.4371 83.4364 67.5973 83.5545 67.7155C83.6727 67.8336 83.8329 67.9 84 67.9C84.1671 67.9 84.3273 67.8336 84.4455 67.7155C84.5636 67.5973 84.63 67.4371 84.63 67.27V64.62C84.6286 64.5863 84.6341 64.5527 84.6461 64.5212C84.658 64.4897 84.6762 64.461 84.6996 64.4367C84.7229 64.4124 84.7509 64.3931 84.782 64.3799C84.813 64.3667 84.8463 64.36 84.88 64.36H94.6C94.6689 64.36 94.7351 64.3874 94.7838 64.4361C94.8326 64.4849 94.86 64.551 94.86 64.62V67.27C94.8793 67.4221 94.9534 67.562 95.0685 67.6634C95.1835 67.7648 95.3316 67.8208 95.485 67.8208C95.6384 67.8208 95.7865 67.7648 95.9015 67.6634C96.0166 67.562 96.0907 67.4221 96.11 67.27V64.62C96.1113 64.4213 96.0732 64.2244 95.9978 64.0406C95.9223 63.8568 95.8112 63.6898 95.6707 63.5493C95.5302 63.4088 95.3632 63.2976 95.1794 63.2222C94.9956 63.1468 94.7987 63.1087 94.6 63.11ZM105.21 69.29H74.28C73.8803 69.2926 73.4978 69.4525 73.2152 69.7352C72.9325 70.0178 72.7726 70.4003 72.77 70.8V75.18C72.77 77.95 81.87 81.11 89.85 81.11C97.83 81.11 106.72 78.01 106.72 75.18V70.8C106.717 70.4003 106.557 70.0178 106.275 69.7352C105.992 69.4525 105.61 69.2926 105.21 69.29ZM105.46 75.18C105.46 76.5 98.54 79.86 89.85 79.86C81.16 79.86 74 76.46 74 75.18V70.8C74 70.731 74.0274 70.6649 74.0761 70.6161C74.1249 70.5674 74.191 70.54 74.26 70.54H105.19C105.257 70.5426 105.321 70.5711 105.367 70.6196C105.414 70.6681 105.44 70.7327 105.44 70.8L105.46 75.18ZM89.85 83.8C90.7 83.8 91.57 83.8 92.44 83.69C92.523 83.6839 92.6039 83.6609 92.6777 83.6224C92.7515 83.5839 92.8167 83.5307 92.8691 83.466C92.9216 83.4014 92.9603 83.3267 92.9828 83.2465C93.0053 83.1664 93.0111 83.0825 93 83C92.9964 82.9175 92.9759 82.8366 92.9396 82.7624C92.9034 82.6882 92.8522 82.6223 92.7893 82.5688C92.7264 82.5153 92.6532 82.4754 92.5742 82.4515C92.4951 82.4276 92.412 82.4203 92.33 82.43C90.5961 82.57 88.8538 82.57 87.12 82.43C86.9566 82.4214 86.7962 82.4756 86.6715 82.5816C86.5469 82.6876 86.4677 82.8373 86.45 83C86.4361 83.1656 86.4882 83.33 86.595 83.4574C86.7017 83.5847 86.8545 83.6647 87.02 83.68C88 83.76 88.94 83.8 89.85 83.8Z" fill="#002148"/>
</svg>
