<svg width="122" height="122" viewBox="0 0 122 122" fill="none" xmlns="http://www.w3.org/2000/svg">
<path d="M61 120.75C93.999 120.75 120.75 93.999 120.75 61C120.75 28.001 93.999 1.25 61 1.25C28.001 1.25 1.25 28.001 1.25 61C1.25 93.999 28.001 120.75 61 120.75Z" fill="#F8F8F8" stroke="#001640" stroke-width="2" stroke-miterlimit="10"/>
<path d="M43.77 56.17H66.42C66.5871 56.17 66.7473 56.1036 66.8655 55.9855C66.9836 55.8673 67.05 55.7071 67.05 55.54C67.05 55.3729 66.9836 55.2127 66.8655 55.0945C66.7473 54.9764 66.5871 54.91 66.42 54.91H43.77C43.6029 54.91 43.4427 54.9764 43.3245 55.0945C43.2064 55.2127 43.14 55.3729 43.14 55.54C43.14 55.7071 43.2064 55.8673 43.3245 55.9855C43.4427 56.1036 43.6029 56.17 43.77 56.17ZM43.77 63.14H66.42C66.5871 63.14 66.7473 63.0736 66.8655 62.9555C66.9836 62.8373 67.05 62.6771 67.05 62.51C67.05 62.3429 66.9836 62.1827 66.8655 62.0645C66.7473 61.9464 66.5871 61.88 66.42 61.88H43.77C43.6029 61.88 43.4427 61.9464 43.3245 62.0645C43.2064 62.1827 43.14 62.3429 43.14 62.51C43.14 62.6771 43.2064 62.8373 43.3245 62.9555C43.4427 63.0736 43.6029 63.14 43.77 63.14ZM43.77 49.2H54.22C54.3871 49.2 54.5473 49.1336 54.6655 49.0155C54.7836 48.8973 54.85 48.7371 54.85 48.57C54.85 48.4029 54.7836 48.2427 54.6655 48.1245C54.5473 48.0064 54.3871 47.94 54.22 47.94H43.77C43.6029 47.94 43.4427 48.0064 43.3245 48.1245C43.2064 48.2427 43.14 48.4029 43.14 48.57C43.14 48.7371 43.2064 48.8973 43.3245 49.0155C43.4427 49.1336 43.6029 49.2 43.77 49.2Z" fill="#002148"/>
<path d="M82.39 82.21L79.09 81.42C78.9547 81.3691 78.8309 81.2915 78.7262 81.1919C78.6214 81.0922 78.5377 80.9726 78.48 80.84L78 79.77C77.9449 79.6438 77.9165 79.5076 77.9165 79.37C77.9165 79.2323 77.9449 79.0962 78 78.97L79.76 76.08C79.9449 75.7567 80.025 75.3839 79.9892 75.0132C79.9534 74.6424 79.8034 74.2919 79.56 74.01L78.06 72.52C77.7852 72.2893 77.4467 72.1477 77.0896 72.1137C76.7324 72.0798 76.3733 72.1552 76.06 72.33L75.72 72.54V48.48C75.7245 48.4535 75.7245 48.4265 75.72 48.4C75.6999 48.3134 75.6624 48.2318 75.61 48.16L61.66 32.47C61.5879 32.3841 61.4895 32.3243 61.38 32.3H36.8C36.1705 32.3026 35.5677 32.5545 35.1235 33.0006C34.6794 33.4466 34.43 34.0505 34.43 34.68V85.19C34.43 85.8195 34.6794 86.4233 35.1235 86.8694C35.5677 87.3154 36.1705 87.5673 36.8 87.57H52.36L55.55 88.34C55.6877 88.3865 55.8136 88.4625 55.919 88.5627C56.0243 88.6628 56.1066 88.7848 56.16 88.92L56.6 89.98C56.6565 90.1075 56.6857 90.2455 56.6857 90.385C56.6857 90.5245 56.6565 90.6624 56.6 90.79L54.83 93.68C54.648 93.9936 54.5668 94.3555 54.5972 94.7167C54.6276 95.078 54.7682 95.4212 55 95.7L56.5 97.2C56.7765 97.4278 57.1154 97.5668 57.4722 97.5989C57.829 97.6311 58.1872 97.5547 58.5 97.38L61.39 95.61C61.659 95.4989 61.961 95.4989 62.23 95.61L63.29 96.05C63.5446 96.1706 63.7419 96.3859 63.84 96.65L64.63 99.94C64.7252 100.292 64.9237 100.608 65.1999 100.847C65.4761 101.086 65.8174 101.237 66.18 101.28H68.38C68.7576 101.249 69.1162 101.101 69.4064 100.858C69.6966 100.614 69.904 100.286 70 99.92L70.79 96.63C70.8365 96.4923 70.9125 96.3663 71.0127 96.261C71.1129 96.1556 71.2348 96.0734 71.37 96.02L72.44 95.58C72.5662 95.5249 72.7023 95.4965 72.84 95.4965C72.9776 95.4965 73.1138 95.5249 73.24 95.58L76.13 97.34C76.4539 97.525 76.8275 97.6043 77.1986 97.5666C77.5698 97.529 77.9199 97.3763 78.2 97.13L79.69 95.64C79.9178 95.3635 80.0568 95.0246 80.089 94.6678C80.1211 94.311 80.0448 93.9527 79.87 93.64L78.11 90.75C78.0528 90.6174 78.0232 90.4744 78.0232 90.33C78.0232 90.1855 78.0528 90.0426 78.11 89.91L78.55 88.84C78.607 88.7132 78.6898 88.5997 78.7931 88.5068C78.8964 88.4138 79.0179 88.3434 79.15 88.3L82.45 87.5C82.8019 87.4055 83.1172 87.2071 83.3545 86.9305C83.5918 86.6539 83.7401 86.3122 83.78 85.95V83.76C83.7346 83.3905 83.5771 83.0438 83.3285 82.7666C83.08 82.4894 82.7524 82.2952 82.39 82.21ZM61.82 34.56L73.72 47.94H62.93C62.37 47.94 61.82 47.06 61.82 46.39V34.56ZM35.69 85.15V34.64C35.69 34.3456 35.8069 34.0633 36.0151 33.8551C36.2233 33.6469 36.5056 33.53 36.8 33.53H60.56V46.39C60.56 47.69 61.56 49.2 62.93 49.2H74.5V73.31L73.21 74.1C73.0784 74.1609 72.935 74.1925 72.79 74.1925C72.6449 74.1925 72.5016 74.1609 72.37 74.1L71.3 73.66C71.1732 73.603 71.0597 73.5202 70.9668 73.4169C70.8738 73.3136 70.8034 73.192 70.76 73.06L70 69.79C69.9036 69.4381 69.7048 69.1229 69.4288 68.8843C69.1528 68.6457 68.8121 68.4945 68.45 68.45H66.25C65.9105 68.4895 65.5904 68.6287 65.33 68.85H43.77C43.602 68.8526 43.4418 68.9212 43.3239 69.0409C43.206 69.1607 43.14 69.322 43.14 69.49C43.14 69.6571 43.2064 69.8173 43.3245 69.9355C43.4427 70.0536 43.6029 70.12 43.77 70.12H64.59L63.88 73.12C63.8307 73.2574 63.7539 73.3834 63.6541 73.49C63.5544 73.5966 63.4339 73.6817 63.3 73.74L62.23 74.18C62.1038 74.2351 61.9677 74.2635 61.83 74.2635C61.6923 74.2635 61.5562 74.2351 61.43 74.18L58.54 72.41C58.2161 72.2249 57.8425 72.1457 57.4713 72.1833C57.1002 72.221 56.7501 72.3737 56.47 72.62L55 74C54.7965 74.2414 54.662 74.5334 54.611 74.845C54.5599 75.1566 54.5941 75.4762 54.71 75.77H43.77C43.6029 75.77 43.4427 75.8364 43.3245 75.9545C43.2064 76.0727 43.14 76.2329 43.14 76.4C43.14 76.568 43.206 76.7293 43.3239 76.849C43.4418 76.9688 43.602 77.0374 43.77 77.04H55.41L56.56 79C56.6209 79.1316 56.6525 79.2749 56.6525 79.42C56.6525 79.565 56.6209 79.7083 56.56 79.84L56.12 80.9C56.0652 81.0276 55.9845 81.1424 55.8829 81.2371C55.7813 81.3318 55.6611 81.4043 55.53 81.45L52.23 82.24C51.8775 82.3352 51.5615 82.5337 51.3227 82.8099C51.0839 83.0861 50.9332 83.4274 50.89 83.79V85.98C50.9093 86.0861 50.9395 86.19 50.98 86.29H36.8C36.6513 86.2914 36.5038 86.2627 36.3665 86.2056C36.2292 86.1484 36.1049 86.064 36.0011 85.9574C35.8974 85.8509 35.8163 85.7244 35.7628 85.5856C35.7094 85.4468 35.6846 85.2986 35.69 85.15ZM82.46 85.84C82.4422 85.9381 82.3985 86.0297 82.3335 86.1053C82.2684 86.1809 82.1844 86.2378 82.09 86.27L78.8 87.07C78.4677 87.1624 78.1608 87.3292 77.9026 87.558C77.6444 87.7867 77.4417 88.0712 77.31 88.39L76.9 89.39C76.7611 89.7084 76.6979 90.0547 76.7152 90.4017C76.7326 90.7487 76.83 91.087 77 91.39L78.76 94.28C78.8048 94.3575 78.8283 94.4455 78.8283 94.535C78.8283 94.6245 78.8048 94.7125 78.76 94.79L77.32 96.23C77.2382 96.2784 77.145 96.3039 77.05 96.3039C76.955 96.3039 76.8617 96.2784 76.78 96.23L73.89 94.47C73.5891 94.2947 73.2509 94.1933 72.9032 94.1742C72.5555 94.1551 72.2083 94.2187 71.89 94.36L70.89 94.77C70.563 94.8954 70.2697 95.0953 70.0336 95.354C69.7975 95.6127 69.6251 95.9229 69.53 96.26L68.74 99.56C68.7043 99.6541 68.6451 99.7374 68.5681 99.8022C68.4911 99.867 68.3988 99.911 68.3 99.93H66.3C66.2012 99.911 66.1089 99.867 66.0319 99.8022C65.9549 99.7374 65.8957 99.6541 65.86 99.56L65.07 96.26C64.9739 95.9291 64.8044 95.6242 64.5741 95.368C64.3439 95.1117 64.0587 94.9107 63.74 94.78L62.74 94.37C62.4548 94.2391 62.1437 94.1742 61.83 94.18C61.4406 94.1748 61.0571 94.275 60.72 94.47L57.83 96.23C57.7516 96.272 57.664 96.294 57.575 96.294C57.486 96.294 57.3984 96.272 57.32 96.23L55.87 94.79C55.8236 94.7076 55.7992 94.6146 55.7992 94.52C55.7992 94.4254 55.8236 94.3324 55.87 94.25L57.64 91.36C57.8087 91.0567 57.9062 90.7191 57.9253 90.3727C57.9443 90.0262 57.8844 89.6799 57.75 89.36L57.34 88.36C57.2129 88.0323 57.0112 87.7387 56.7508 87.5026C56.4904 87.2665 56.1786 87.0944 55.84 87L52.55 86.2C52.4553 86.1666 52.3707 86.1095 52.3042 86.0343C52.2377 85.959 52.1915 85.8681 52.17 85.77V83.77C52.1915 83.6719 52.2377 83.5809 52.3042 83.5057C52.3707 83.4304 52.4553 83.3734 52.55 83.34L55.84 82.55C56.173 82.4559 56.4802 82.2873 56.7384 82.0568C56.9965 81.8264 57.1988 81.5402 57.33 81.22L57.74 80.22C57.8745 79.9005 57.9353 79.5548 57.918 79.2086C57.9007 78.8624 57.8057 78.5245 57.64 78.22L55.87 75.33C55.8279 75.2498 55.806 75.1606 55.806 75.07C55.806 74.9794 55.8279 74.8902 55.87 74.81L57.31 73.37C57.3924 73.3236 57.4854 73.2992 57.58 73.2992C57.6746 73.2992 57.7676 73.3236 57.85 73.37L60.74 75.14C61.0427 75.3101 61.3805 75.4084 61.7272 75.4275C62.0739 75.4466 62.4204 75.3858 62.74 75.25L63.74 74.84C64.0657 74.7096 64.3575 74.5068 64.5931 74.2469C64.8287 73.987 65.0021 73.6769 65.1 73.34L65.89 70.05C65.9243 69.9541 65.9828 69.8686 66.0599 69.802C66.137 69.7354 66.2301 69.6899 66.33 69.67H68.33C68.4295 69.6908 68.5221 69.7367 68.5991 69.8031C68.6761 69.8696 68.7349 69.9546 68.77 70.05L69.56 73.34C69.6527 73.6725 69.8209 73.979 70.0516 74.2358C70.2823 74.4925 70.5693 74.6924 70.89 74.82L71.89 75.23C72.2082 75.3681 72.5538 75.4318 72.9004 75.4162C73.247 75.4007 73.5854 75.3062 73.89 75.14L76.78 73.37C76.8581 73.3271 76.9459 73.3046 77.035 73.3046C77.1241 73.3046 77.2118 73.3271 77.29 73.37L78.74 74.81C78.7894 74.8914 78.8156 74.9848 78.8156 75.08C78.8156 75.1752 78.7894 75.2686 78.74 75.35L77 78.3C76.8262 78.6014 76.7257 78.9395 76.7066 79.2869C76.6875 79.6343 76.7503 79.9813 76.89 80.3L77.3 81.3C77.429 81.6265 77.6314 81.919 77.8915 82.1548C78.1516 82.3906 78.4624 82.5635 78.8 82.66L82.09 83.45C82.1844 83.4822 82.2684 83.5391 82.3335 83.6147C82.3985 83.6903 82.4422 83.7819 82.46 83.88C82.4802 84.213 82.4802 84.547 82.46 84.88C82.4796 85.1997 82.4796 85.5203 82.46 85.84Z" fill="#002148"/>
<mask id="path-4-inside-1_99:115" fill="white">
<path d="M67.32 77.9C65.9355 77.9 64.5822 78.3105 63.431 79.0797C62.2799 79.8489 61.3827 80.9421 60.8529 82.2212C60.323 83.5003 60.1844 84.9078 60.4545 86.2656C60.7246 87.6235 61.3913 88.8708 62.3703 89.8497C63.3492 90.8287 64.5965 91.4954 65.9544 91.7655C67.3122 92.0356 68.7197 91.897 69.9988 91.3671C71.2779 90.8373 72.3711 89.9401 73.1403 88.789C73.9095 87.6378 74.32 86.2845 74.32 84.9C74.32 83.0435 73.5825 81.263 72.2698 79.9502C70.957 78.6375 69.1765 77.9 67.32 77.9ZM67.32 90.55C66.1914 90.554 65.087 90.2228 64.1468 89.5984C63.2066 88.9741 62.4729 88.0846 62.0387 87.0429C61.6045 86.0011 61.4894 84.8539 61.7078 83.7466C61.9263 82.6393 62.4686 81.6218 63.266 80.8231C64.0633 80.0243 65.0799 79.4802 66.1868 79.2598C67.2937 79.0394 68.4411 79.1525 69.4836 79.5849C70.5261 80.0172 71.4168 80.7493 72.0428 81.6885C72.6689 82.6276 73.002 83.7314 73 84.86C73 86.3673 72.4019 87.8131 71.337 88.8799C70.2721 89.9467 68.8274 90.5473 67.32 90.55ZM102 74.06L99.92 73C99.8092 72.9132 99.7344 72.7886 99.71 72.65L99.59 71.85C99.5814 71.7206 99.6205 71.5925 99.7 71.49L101.37 69.85C101.58 69.6338 101.716 69.357 101.759 69.0589C101.802 68.7608 101.75 68.4567 101.61 68.19L100.85 66.93C100.68 66.6895 100.44 66.508 100.162 66.4112C99.8837 66.3144 99.5824 66.3069 99.3 66.39L97.06 67.08C96.9916 67.0919 96.9215 67.0891 96.8543 67.0719C96.787 67.0547 96.7242 67.0233 96.67 66.98L96.02 66.5C95.9208 66.4207 95.8563 66.306 95.84 66.18V63.83C95.8351 63.5383 95.743 63.2547 95.5754 63.0159C95.4079 62.777 95.1726 62.5939 94.9 62.49C94.9 62.49 94.6 62.39 94.15 62.27C93.7 62.15 93.4 62.11 93.39 62.11C93.1007 62.0747 92.8074 62.1262 92.5475 62.258C92.2875 62.3897 92.0726 62.5958 91.93 62.85L90.84 64.93C90.7542 65.0402 90.6285 65.112 90.49 65.13L89.69 65.25C89.5652 65.259 89.4412 65.2236 89.34 65.15L87.69 63.47C87.4719 63.2632 87.1946 63.1299 86.8969 63.0886C86.5992 63.0474 86.2961 63.1003 86.03 63.24L84.77 63.99C84.5298 64.1623 84.3489 64.4048 84.2522 64.6842C84.1555 64.9636 84.1477 65.266 84.23 65.55L84.93 67.79C84.9426 67.9276 84.9073 68.0654 84.83 68.18L84.35 68.83C84.2585 68.9282 84.1337 68.9888 84 69H81.66C81.3619 69.0122 81.0744 69.1142 80.8353 69.2926C80.5961 69.4711 80.4165 69.7177 80.32 70C80.32 70 80.22 70.29 80.11 70.74C80 71.19 79.94 71.5 79.94 71.5C79.9026 71.7909 79.9531 72.0863 80.085 72.3483C80.2169 72.6102 80.4241 72.8267 80.68 72.97L82.79 74C82.8974 74.0854 82.9717 74.2057 83 74.34L83.12 75.15C83.1201 75.2752 83.0817 75.3974 83.01 75.5L81.34 77.14C81.1303 77.3562 80.9942 77.633 80.9511 77.9311C80.908 78.2292 80.9601 78.5333 81.1 78.8L81.85 80.06C82.022 80.3009 82.264 80.4829 82.5432 80.5813C82.8223 80.6797 83.125 80.6898 83.41 80.61L85.65 79.91C85.7184 79.8987 85.7884 79.9018 85.8555 79.919C85.9227 79.9362 85.9855 79.9672 86.04 80.01L86.69 80.49C86.7876 80.5749 86.8515 80.692 86.87 80.82V83.16C86.8794 83.4589 86.9804 83.7477 87.1592 83.9873C87.338 84.227 87.5862 84.4059 87.87 84.5C88.1156 84.5877 88.366 84.6612 88.62 84.72C89.07 84.83 89.37 84.88 89.38 84.88H89.57C89.8302 84.878 90.0852 84.8065 90.3084 84.6728C90.5317 84.5392 90.7153 84.3484 90.84 84.12L91.93 82.05C92.0147 81.9369 92.1404 81.8615 92.28 81.84L93.08 81.72C93.2065 81.71 93.332 81.7494 93.43 81.83L95.07 83.5C95.2862 83.7097 95.563 83.8458 95.8611 83.8889C96.1592 83.932 96.4633 83.8799 96.73 83.74L98 82.98C98.2402 82.8077 98.4211 82.5651 98.5178 82.2858C98.6145 82.0064 98.6223 81.7039 98.54 81.42L97.84 79.19C97.8266 79.0523 97.862 78.9142 97.94 78.8L98.42 78.14C98.42 78.07 98.65 77.93 98.75 77.97L101 78C101.291 77.9938 101.574 77.9011 101.813 77.7337C102.052 77.5664 102.235 77.3319 102.34 77.06C102.34 77.06 102.44 76.76 102.55 76.31C102.618 76.0601 102.672 75.8063 102.71 75.55C102.756 75.259 102.712 74.961 102.586 74.695C102.459 74.4291 102.255 74.2077 102 74.06ZM101.35 76C101.298 76.2165 101.234 76.4301 101.16 76.64C101.16 76.64 101.06 76.73 101.02 76.74H98.68C98.4113 76.7465 98.1476 76.8137 97.9086 76.9367C97.6696 77.0596 97.4615 77.2351 97.3 77.45L96.87 78.04C96.6988 78.257 96.5814 78.5116 96.5275 78.7827C96.4737 79.0539 96.4848 79.334 96.56 79.6L97.25 81.83V81.95L96.05 82.66C96.028 82.6699 96.0042 82.6751 95.98 82.6751C95.9559 82.6751 95.932 82.6699 95.91 82.66L94.27 80.99C94.0761 80.8035 93.8413 80.6648 93.5844 80.585C93.3275 80.5051 93.0555 80.4863 92.79 80.53L92.06 80.63C91.7869 80.6646 91.5256 80.7621 91.2965 80.9148C91.0675 81.0675 90.877 81.2712 90.74 81.51L89.65 83.59C89.6104 83.6311 89.557 83.6561 89.5 83.66C89.2809 83.6254 89.0639 83.5786 88.85 83.52C88.48 83.43 88.23 83.34 88.22 83.34C88.1698 83.308 88.134 83.2578 88.12 83.2V80.86C88.1162 80.5897 88.049 80.3241 87.924 80.0844C87.7989 79.8448 87.6195 79.6378 87.4 79.48L86.82 79.05C86.5052 78.7986 86.1128 78.6643 85.71 78.67C85.558 78.6695 85.4066 78.6897 85.26 78.73L83.03 79.43H82.93L82.21 78.24C82.1947 78.1912 82.1947 78.1388 82.21 78.09L83.89 76.45C84.075 76.2571 84.2128 76.0241 84.2926 75.769C84.3724 75.514 84.3921 75.2439 84.35 74.98L84.24 74.25C84.2092 73.9757 84.1133 73.7128 83.9602 73.4832C83.8071 73.2535 83.6013 73.0639 83.36 72.93L81.29 71.84C81.2674 71.8215 81.2487 71.7988 81.2349 71.773C81.2212 71.7473 81.2127 71.7191 81.21 71.69C81.21 71.69 81.21 71.42 81.35 71.04C81.4011 70.8265 81.4646 70.6161 81.54 70.41C81.5528 70.3847 81.5712 70.3625 81.5937 70.3452C81.6162 70.3279 81.6422 70.3159 81.67 70.31H84.02C84.287 70.3038 84.549 70.2355 84.785 70.1106C85.0211 69.9856 85.2248 69.8074 85.38 69.59L85.82 69C85.9911 68.7848 86.1085 68.532 86.1624 68.2625C86.2163 67.9929 86.2052 67.7144 86.13 67.45L85.44 65.22V65.1L86.64 64.38C86.6854 64.3647 86.7346 64.3647 86.78 64.38L88.45 66C88.6435 66.1876 88.8778 66.3277 89.1347 66.4092C89.3915 66.4908 89.6638 66.5116 89.93 66.47L90.66 66.36C90.9331 66.3254 91.1944 66.2279 91.4235 66.0752C91.6525 65.9225 91.843 65.7188 91.98 65.48L93.07 63.41C93.086 63.3872 93.1069 63.3682 93.1311 63.3544C93.1553 63.3406 93.1822 63.3322 93.21 63.33L93.87 63.47C94.24 63.56 94.49 63.65 94.5 63.65C94.5502 63.682 94.586 63.7321 94.6 63.79V66.14C94.6043 66.4077 94.6706 66.6708 94.7938 66.9085C94.917 67.1463 95.0937 67.3522 95.31 67.51L95.9 67.95C96.1193 68.117 96.3738 68.2318 96.6441 68.2855C96.9145 68.3392 97.1935 68.3305 97.46 68.26L99.69 67.56H99.79L100.51 68.76C100.525 68.8054 100.525 68.8546 100.51 68.9L98.83 70.54C98.6448 70.7348 98.507 70.9696 98.4272 71.2263C98.3475 71.483 98.3279 71.7545 98.37 72.02L98.48 72.75C98.512 73.0226 98.6074 73.284 98.7585 73.5132C98.9095 73.7424 99.1121 73.9331 99.35 74.07L101.43 75.15C101.47 75.1916 101.498 75.2435 101.51 75.3L101.35 76Z"/>
</mask>
<path d="M67.32 77.9C65.9355 77.9 64.5822 78.3105 63.431 79.0797C62.2799 79.8489 61.3827 80.9421 60.8529 82.2212C60.323 83.5003 60.1844 84.9078 60.4545 86.2656C60.7246 87.6235 61.3913 88.8708 62.3703 89.8497C63.3492 90.8287 64.5965 91.4954 65.9544 91.7655C67.3122 92.0356 68.7197 91.897 69.9988 91.3671C71.2779 90.8373 72.3711 89.9401 73.1403 88.789C73.9095 87.6378 74.32 86.2845 74.32 84.9C74.32 83.0435 73.5825 81.263 72.2698 79.9502C70.957 78.6375 69.1765 77.9 67.32 77.9ZM67.32 90.55C66.1914 90.554 65.087 90.2228 64.1468 89.5984C63.2066 88.9741 62.4729 88.0846 62.0387 87.0429C61.6045 86.0011 61.4894 84.8539 61.7078 83.7466C61.9263 82.6393 62.4686 81.6218 63.266 80.8231C64.0633 80.0243 65.0799 79.4802 66.1868 79.2598C67.2937 79.0394 68.4411 79.1525 69.4836 79.5849C70.5261 80.0172 71.4168 80.7493 72.0428 81.6885C72.6689 82.6276 73.002 83.7314 73 84.86C73 86.3673 72.4019 87.8131 71.337 88.8799C70.2721 89.9467 68.8274 90.5473 67.32 90.55ZM102 74.06L99.92 73C99.8092 72.9132 99.7344 72.7886 99.71 72.65L99.59 71.85C99.5814 71.7206 99.6205 71.5925 99.7 71.49L101.37 69.85C101.58 69.6338 101.716 69.357 101.759 69.0589C101.802 68.7608 101.75 68.4567 101.61 68.19L100.85 66.93C100.68 66.6895 100.44 66.508 100.162 66.4112C99.8837 66.3144 99.5824 66.3069 99.3 66.39L97.06 67.08C96.9916 67.0919 96.9215 67.0891 96.8543 67.0719C96.787 67.0547 96.7242 67.0233 96.67 66.98L96.02 66.5C95.9208 66.4207 95.8563 66.306 95.84 66.18V63.83C95.8351 63.5383 95.743 63.2547 95.5754 63.0159C95.4079 62.777 95.1726 62.5939 94.9 62.49C94.9 62.49 94.6 62.39 94.15 62.27C93.7 62.15 93.4 62.11 93.39 62.11C93.1007 62.0747 92.8074 62.1262 92.5475 62.258C92.2875 62.3897 92.0726 62.5958 91.93 62.85L90.84 64.93C90.7542 65.0402 90.6285 65.112 90.49 65.13L89.69 65.25C89.5652 65.259 89.4412 65.2236 89.34 65.15L87.69 63.47C87.4719 63.2632 87.1946 63.1299 86.8969 63.0886C86.5992 63.0474 86.2961 63.1003 86.03 63.24L84.77 63.99C84.5298 64.1623 84.3489 64.4048 84.2522 64.6842C84.1555 64.9636 84.1477 65.266 84.23 65.55L84.93 67.79C84.9426 67.9276 84.9073 68.0654 84.83 68.18L84.35 68.83C84.2585 68.9282 84.1337 68.9888 84 69H81.66C81.3619 69.0122 81.0744 69.1142 80.8353 69.2926C80.5961 69.4711 80.4165 69.7177 80.32 70C80.32 70 80.22 70.29 80.11 70.74C80 71.19 79.94 71.5 79.94 71.5C79.9026 71.7909 79.9531 72.0863 80.085 72.3483C80.2169 72.6102 80.4241 72.8267 80.68 72.97L82.79 74C82.8974 74.0854 82.9717 74.2057 83 74.34L83.12 75.15C83.1201 75.2752 83.0817 75.3974 83.01 75.5L81.34 77.14C81.1303 77.3562 80.9942 77.633 80.9511 77.9311C80.908 78.2292 80.9601 78.5333 81.1 78.8L81.85 80.06C82.022 80.3009 82.264 80.4829 82.5432 80.5813C82.8223 80.6797 83.125 80.6898 83.41 80.61L85.65 79.91C85.7184 79.8987 85.7884 79.9018 85.8555 79.919C85.9227 79.9362 85.9855 79.9672 86.04 80.01L86.69 80.49C86.7876 80.5749 86.8515 80.692 86.87 80.82V83.16C86.8794 83.4589 86.9804 83.7477 87.1592 83.9873C87.338 84.227 87.5862 84.4059 87.87 84.5C88.1156 84.5877 88.366 84.6612 88.62 84.72C89.07 84.83 89.37 84.88 89.38 84.88H89.57C89.8302 84.878 90.0852 84.8065 90.3084 84.6728C90.5317 84.5392 90.7153 84.3484 90.84 84.12L91.93 82.05C92.0147 81.9369 92.1404 81.8615 92.28 81.84L93.08 81.72C93.2065 81.71 93.332 81.7494 93.43 81.83L95.07 83.5C95.2862 83.7097 95.563 83.8458 95.8611 83.8889C96.1592 83.932 96.4633 83.8799 96.73 83.74L98 82.98C98.2402 82.8077 98.4211 82.5651 98.5178 82.2858C98.6145 82.0064 98.6223 81.7039 98.54 81.42L97.84 79.19C97.8266 79.0523 97.862 78.9142 97.94 78.8L98.42 78.14C98.42 78.07 98.65 77.93 98.75 77.97L101 78C101.291 77.9938 101.574 77.9011 101.813 77.7337C102.052 77.5664 102.235 77.3319 102.34 77.06C102.34 77.06 102.44 76.76 102.55 76.31C102.618 76.0601 102.672 75.8063 102.71 75.55C102.756 75.259 102.712 74.961 102.586 74.695C102.459 74.4291 102.255 74.2077 102 74.06ZM101.35 76C101.298 76.2165 101.234 76.4301 101.16 76.64C101.16 76.64 101.06 76.73 101.02 76.74H98.68C98.4113 76.7465 98.1476 76.8137 97.9086 76.9367C97.6696 77.0596 97.4615 77.2351 97.3 77.45L96.87 78.04C96.6988 78.257 96.5814 78.5116 96.5275 78.7827C96.4737 79.0539 96.4848 79.334 96.56 79.6L97.25 81.83V81.95L96.05 82.66C96.028 82.6699 96.0042 82.6751 95.98 82.6751C95.9559 82.6751 95.932 82.6699 95.91 82.66L94.27 80.99C94.0761 80.8035 93.8413 80.6648 93.5844 80.585C93.3275 80.5051 93.0555 80.4863 92.79 80.53L92.06 80.63C91.7869 80.6646 91.5256 80.7621 91.2965 80.9148C91.0675 81.0675 90.877 81.2712 90.74 81.51L89.65 83.59C89.6104 83.6311 89.557 83.6561 89.5 83.66C89.2809 83.6254 89.0639 83.5786 88.85 83.52C88.48 83.43 88.23 83.34 88.22 83.34C88.1698 83.308 88.134 83.2578 88.12 83.2V80.86C88.1162 80.5897 88.049 80.3241 87.924 80.0844C87.7989 79.8448 87.6195 79.6378 87.4 79.48L86.82 79.05C86.5052 78.7986 86.1128 78.6643 85.71 78.67C85.558 78.6695 85.4066 78.6897 85.26 78.73L83.03 79.43H82.93L82.21 78.24C82.1947 78.1912 82.1947 78.1388 82.21 78.09L83.89 76.45C84.075 76.2571 84.2128 76.0241 84.2926 75.769C84.3724 75.514 84.3921 75.2439 84.35 74.98L84.24 74.25C84.2092 73.9757 84.1133 73.7128 83.9602 73.4832C83.8071 73.2535 83.6013 73.0639 83.36 72.93L81.29 71.84C81.2674 71.8215 81.2487 71.7988 81.2349 71.773C81.2212 71.7473 81.2127 71.7191 81.21 71.69C81.21 71.69 81.21 71.42 81.35 71.04C81.4011 70.8265 81.4646 70.6161 81.54 70.41C81.5528 70.3847 81.5712 70.3625 81.5937 70.3452C81.6162 70.3279 81.6422 70.3159 81.67 70.31H84.02C84.287 70.3038 84.549 70.2355 84.785 70.1106C85.0211 69.9856 85.2248 69.8074 85.38 69.59L85.82 69C85.9911 68.7848 86.1085 68.532 86.1624 68.2625C86.2163 67.9929 86.2052 67.7144 86.13 67.45L85.44 65.22V65.1L86.64 64.38C86.6854 64.3647 86.7346 64.3647 86.78 64.38L88.45 66C88.6435 66.1876 88.8778 66.3277 89.1347 66.4092C89.3915 66.4908 89.6638 66.5116 89.93 66.47L90.66 66.36C90.9331 66.3254 91.1944 66.2279 91.4235 66.0752C91.6525 65.9225 91.843 65.7188 91.98 65.48L93.07 63.41C93.086 63.3872 93.1069 63.3682 93.1311 63.3544C93.1553 63.3406 93.1822 63.3322 93.21 63.33L93.87 63.47C94.24 63.56 94.49 63.65 94.5 63.65C94.5502 63.682 94.586 63.7321 94.6 63.79V66.14C94.6043 66.4077 94.6706 66.6708 94.7938 66.9085C94.917 67.1463 95.0937 67.3522 95.31 67.51L95.9 67.95C96.1193 68.117 96.3738 68.2318 96.6441 68.2855C96.9145 68.3392 97.1935 68.3305 97.46 68.26L99.69 67.56H99.79L100.51 68.76C100.525 68.8054 100.525 68.8546 100.51 68.9L98.83 70.54C98.6448 70.7348 98.507 70.9696 98.4272 71.2263C98.3475 71.483 98.3279 71.7545 98.37 72.02L98.48 72.75C98.512 73.0226 98.6074 73.284 98.7585 73.5132C98.9095 73.7424 99.1121 73.9331 99.35 74.07L101.43 75.15C101.47 75.1916 101.498 75.2435 101.51 75.3L101.35 76Z" fill="#002148" stroke="black" stroke-width="2" mask="url(#path-4-inside-1_99:115)"/>
<path d="M91.35 69.68C90.598 69.68 89.8629 69.9031 89.2378 70.3211C88.6127 70.7391 88.1256 71.3332 87.8383 72.0281C87.551 72.7231 87.4763 73.4876 87.6237 74.225C87.7712 74.9624 88.1341 75.6395 88.6665 76.1705C89.199 76.7016 89.877 77.0627 90.6148 77.2082C91.3526 77.3537 92.8111 76.9879 92.8111 76.9879C93.5053 76.6987 94.0981 76.2101 94.5144 75.5839C94.9308 74.9577 95.152 74.222 95.15 73.47C95.15 72.9715 95.0516 72.4778 94.8605 72.0173C94.6694 71.5568 94.3894 71.1386 94.0364 70.7865C93.6834 70.4345 93.2644 70.1555 92.8034 69.9656C92.3424 69.7758 91.8485 69.6787 91.35 69.68ZM91.35 76C90.8496 76 90.3604 75.8516 89.9444 75.5736C89.5283 75.2956 89.2041 74.9005 89.0126 74.4382C88.8211 73.9759 88.771 73.4672 88.8686 72.9764C88.9662 72.4857 89.2072 72.0349 89.561 71.681C89.9148 71.3272 90.3656 71.0862 90.8564 70.9886C91.3472 70.891 91.8559 70.9411 92.3182 71.1326C92.7805 71.3241 93.1756 71.6484 93.4536 72.0644C93.7316 72.4805 93.88 72.9696 93.88 73.47C93.88 74.141 93.6134 74.7845 93.139 75.259C92.6645 75.7335 92.021 76 91.35 76Z" fill="#002148"/>
</svg>
