<svg width="122" height="122" viewBox="0 0 122 122" fill="none" xmlns="http://www.w3.org/2000/svg">
<path d="M80.7 117.75C86.0949 120.063 92.0609 120.699 97.8222 119.576C103.584 118.453 108.874 115.622 113.005 111.452C117.136 107.282 119.917 101.966 120.986 96.1944C122.055 90.4228 121.363 84.463 119 79.09C116.121 88.0999 111.15 96.3001 104.493 103.02C97.836 109.739 89.6826 114.787 80.7 117.75Z" fill="#0098A1"/>
<path d="M61 120.75C93.999 120.75 120.75 93.999 120.75 61C120.75 28.001 93.999 1.25 61 1.25C28.001 1.25 1.25 28.001 1.25 61C1.25 93.999 28.001 120.75 61 120.75Z" fill="#F8F8F8" stroke="#001640" stroke-width="2" stroke-miterlimit="10"/>
<path d="M40 44.35H50.84C50.9287 44.3612 51.0188 44.3535 51.1043 44.3272C51.1898 44.3009 51.2687 44.2568 51.3358 44.1977C51.4028 44.1385 51.4566 44.0658 51.4934 43.9843C51.5302 43.9028 51.5492 43.8144 51.5492 43.725C51.5492 43.6356 51.5302 43.5472 51.4934 43.4657C51.4566 43.3842 51.4028 43.3115 51.3358 43.2523C51.2687 43.1932 51.1898 43.1491 51.1043 43.1228C51.0188 43.0965 50.9287 43.0888 50.84 43.1H40C39.8479 43.1193 39.708 43.1934 39.6066 43.3085C39.5052 43.4235 39.4492 43.5716 39.4492 43.725C39.4492 43.8784 39.5052 44.0265 39.6066 44.1415C39.708 44.2566 39.8479 44.3307 40 44.35ZM54 46.85H40C39.8479 46.8693 39.708 46.9434 39.6066 47.0585C39.5052 47.1735 39.4492 47.3216 39.4492 47.475C39.4492 47.6284 39.5052 47.7765 39.6066 47.8915C39.708 48.0066 39.8479 48.0807 40 48.1H54C54.0887 48.1112 54.1788 48.1035 54.2643 48.0772C54.3498 48.0509 54.4287 48.0068 54.4957 47.9477C54.5628 47.8885 54.6166 47.8158 54.6534 47.7343C54.6902 47.6528 54.7092 47.5644 54.7092 47.475C54.7092 47.3856 54.6902 47.2972 54.6534 47.2157C54.6166 47.1342 54.5628 47.0615 54.4957 47.0023C54.4287 46.9432 54.3498 46.8991 54.2643 46.8728C54.1788 46.8465 54.0887 46.8388 54 46.85ZM45.44 50.6H40C39.8479 50.6193 39.708 50.6934 39.6066 50.8085C39.5052 50.9235 39.4492 51.0716 39.4492 51.225C39.4492 51.3784 39.5052 51.5265 39.6066 51.6415C39.708 51.7566 39.8479 51.8307 40 51.85H45.41C45.5622 51.8307 45.702 51.7566 45.8034 51.6415C45.9048 51.5265 45.9608 51.3784 45.9608 51.225C45.9608 51.0716 45.9048 50.9235 45.8034 50.8085C45.702 50.6934 45.5622 50.6193 45.41 50.6H45.44ZM58 44.35H68.84C68.9921 44.3307 69.132 44.2566 69.2334 44.1415C69.3348 44.0265 69.3908 43.8784 69.3908 43.725C69.3908 43.5716 69.3348 43.4235 69.2334 43.3085C69.132 43.1934 68.9921 43.1193 68.84 43.1H58C57.8479 43.1193 57.708 43.1934 57.6066 43.3085C57.5052 43.4235 57.4492 43.5716 57.4492 43.725C57.4492 43.8784 57.5052 44.0265 57.6066 44.1415C57.708 44.2566 57.8479 44.3307 58 44.35ZM58 48.1H72C72.1522 48.0807 72.292 48.0066 72.3934 47.8915C72.4948 47.7765 72.5508 47.6284 72.5508 47.475C72.5508 47.3216 72.4948 47.1735 72.3934 47.0585C72.292 46.9434 72.1522 46.8693 72 46.85H58C57.8479 46.8693 57.708 46.9434 57.6066 47.0585C57.5052 47.1735 57.4492 47.3216 57.4492 47.475C57.4492 47.6284 57.5052 47.7765 57.6066 47.8915C57.708 48.0066 57.8479 48.0807 58 48.1ZM64.06 51.22C64.0574 51.0547 63.9898 50.897 63.872 50.781C63.7541 50.665 63.5954 50.6 63.43 50.6H58C57.8479 50.6193 57.708 50.6934 57.6066 50.8085C57.5052 50.9235 57.4492 51.0716 57.4492 51.225C57.4492 51.3784 57.5052 51.5265 57.6066 51.6415C57.708 51.7566 57.8479 51.8307 58 51.85H63.41C63.4944 51.8527 63.5785 51.8384 63.6572 51.8079C63.736 51.7775 63.8078 51.7315 63.8685 51.6727C63.9291 51.6139 63.9773 51.5436 64.0102 51.4658C64.0431 51.388 64.06 51.3044 64.06 51.22ZM92.66 84.48H91V72.18H92.79C92.9544 72.18 93.1121 72.1147 93.2284 71.9984C93.3447 71.8821 93.41 71.7244 93.41 71.56V65C93.41 64.8356 93.3447 64.6779 93.2284 64.5616C93.1121 64.4453 92.9544 64.38 92.79 64.38H86.23C84.23 64.38 82.8 65.47 82.8 66.97V69.6C82.8616 70.2205 83.1329 70.8015 83.5693 71.2469C84.0056 71.6924 84.5809 71.9757 85.2 72.05C85.34 73.7 85.57 80.18 81.87 84.49H78.17C77.8221 84.4925 77.4782 84.5645 77.1586 84.7019C76.8389 84.8392 76.5499 85.039 76.3086 85.2897C76.0673 85.5403 75.8785 85.8366 75.7534 86.1613C75.6283 86.4859 75.5693 86.8323 75.58 87.18V89C75.58 89.1654 75.645 89.3241 75.761 89.442C75.877 89.5598 76.0347 89.6274 76.2 89.63H94.59C94.7553 89.6274 94.913 89.5598 95.029 89.442C95.145 89.3241 95.21 89.1654 95.21 89V87C95.2087 86.6669 95.1416 86.3374 95.0126 86.0302C94.8837 85.7231 94.6953 85.4445 94.4584 85.2104C94.2215 84.9763 93.9406 84.7912 93.632 84.6659C93.3234 84.5405 92.9931 84.4774 92.66 84.48ZM84.09 69.59V67C84.09 66.23 85.03 65.66 86.27 65.66H92.2V70.97H86.41C85.13 70.93 84.09 70.33 84.09 69.59ZM86.51 72.18H89.79V84.48H83.52C86.76 80 86.66 74.17 86.51 72.18ZM94 88.42H76.87V87.17C76.8592 86.9865 76.8857 86.8026 76.9479 86.6296C77.0101 86.4566 77.1068 86.298 77.232 86.1634C77.3573 86.0288 77.5085 85.921 77.6766 85.8465C77.8447 85.772 78.0262 85.7324 78.21 85.73H92.66C92.8382 85.7214 93.0163 85.7502 93.1828 85.8145C93.3492 85.8788 93.5004 85.9772 93.6266 86.1034C93.7528 86.2296 93.8512 86.3808 93.9155 86.5472C93.9798 86.7137 94.0086 86.8918 94 87.07V88.42ZM77 70.27C76.28 70.27 76.24 69.15 76.24 68.93V67.62C76.24 67.12 76.34 66.3 77 66.3C77.0887 66.3112 77.1788 66.3035 77.2643 66.2772C77.3498 66.2509 77.4287 66.2068 77.4957 66.1477C77.5628 66.0885 77.6166 66.0158 77.6534 65.9343C77.6902 65.8528 77.7092 65.7644 77.7092 65.675C77.7092 65.5856 77.6902 65.4972 77.6534 65.4157C77.6166 65.3342 77.5628 65.2615 77.4957 65.2023C77.4287 65.1432 77.3498 65.0991 77.2643 65.0728C77.1788 65.0465 77.0887 65.0388 77 65.05C75.78 65.05 75 66.05 75 67.62V68.93C75 70.48 75.81 71.52 77 71.52C77.0887 71.5312 77.1788 71.5235 77.2643 71.4972C77.3498 71.4709 77.4287 71.4268 77.4957 71.3677C77.5628 71.3085 77.6166 71.2358 77.6534 71.1543C77.6902 71.0728 77.7092 70.9844 77.7092 70.895C77.7092 70.8056 77.6902 70.7172 77.6534 70.6357C77.6166 70.5542 77.5628 70.4815 77.4957 70.4223C77.4287 70.3632 77.3498 70.3191 77.2643 70.2928C77.1788 70.2665 77.0887 70.2588 77 70.27Z" fill="#002148"/>
<path d="M79.57 78.75C80.2675 78.75 80.9365 78.4729 81.4297 77.9797C81.9229 77.4865 82.2 76.8175 82.2 76.12V60.43C82.1989 59.8078 81.9773 59.2062 81.5745 58.732C81.1717 58.2578 80.6138 57.9417 80 57.84V36C80 35.504 79.803 35.0284 79.4523 34.6777C79.1016 34.327 78.626 34.13 78.13 34.13H33.13C32.8823 34.1274 32.6365 34.1737 32.4067 34.2664C32.177 34.359 31.9678 34.4962 31.7912 34.67C31.6147 34.8438 31.4742 35.0507 31.3779 35.279C31.2816 35.5072 31.2313 35.7523 31.23 36V63.53C31.23 64.0286 31.4281 64.5068 31.7807 64.8593C32.1332 65.2119 32.6114 65.41 33.11 65.41H41.43C41.6956 66.7614 42.3448 68.0078 43.3 69C44.0669 71.1824 45.334 73.1551 47 74.76C46.7526 75.6139 46.3064 76.3971 45.6981 77.0454C45.0897 77.6937 44.3365 78.1888 43.5 78.49C43.0679 78.6373 42.6271 78.7575 42.18 78.85C39.5 79.49 34.5 80.68 33.25 85.36C33.207 85.5204 33.2292 85.6913 33.3116 85.8355C33.394 85.9797 33.53 86.0855 33.69 86.13H33.85C33.9889 86.1285 34.1236 86.0818 34.2336 85.997C34.3437 85.9122 34.4231 85.7939 34.46 85.66C35.52 81.66 39.87 80.66 42.46 80.05C42.983 79.9525 43.4978 79.8154 44 79.64C45.0869 79.2462 46.0542 78.5794 46.809 77.7038C47.5638 76.8281 48.0807 75.7731 48.31 74.64C48.3307 74.5327 48.3231 74.422 48.288 74.3185C48.253 74.2151 48.1916 74.1226 48.11 74.05C46.434 72.5107 45.1719 70.5747 44.44 68.42C44.4161 68.3419 44.3751 68.2702 44.32 68.21C43.377 67.3157 42.7758 66.1203 42.62 64.83C42.6029 64.5878 42.6573 64.346 42.7764 64.1344C42.8955 63.9229 43.0741 63.751 43.29 63.64C43.378 63.586 43.4513 63.5113 43.5036 63.4224C43.5559 63.3335 43.5856 63.2331 43.59 63.13C43.82 57.85 47.59 53.69 52.14 53.66V53.04L52.27 53.67C56.9 53.73 60.63 57.98 60.77 63.34C60.7713 63.428 60.7917 63.5147 60.8296 63.5941C60.8676 63.6735 60.9223 63.7437 60.99 63.8C61.136 63.921 61.2518 64.0744 61.3282 64.248C61.4046 64.4216 61.4394 64.6106 61.43 64.8C61.3241 65.8512 60.8943 66.8436 60.2 67.64C60.1481 67.6971 60.1104 67.7656 60.09 67.84C59.373 70.3319 57.953 72.5643 56 74.27C55.9123 74.3429 55.8457 74.4378 55.807 74.5451C55.7684 74.6523 55.759 74.7679 55.78 74.88C56.0075 76.0138 56.5237 77.0698 57.2788 77.9457C58.0338 78.8216 59.0021 79.4879 60.09 79.88C60.6128 80.0711 61.1516 80.215 61.7 80.31C64.27 80.87 68.57 81.8 69.62 85.72C69.6667 85.8786 69.7729 86.013 69.9164 86.095C70.06 86.177 70.2297 86.2003 70.39 86.16C70.55 86.1156 70.686 86.0097 70.7684 85.8655C70.8508 85.7213 70.873 85.5504 70.83 85.39C69.58 80.74 64.63 79.66 61.96 79.09C61.4917 79.0047 61.0304 78.8843 60.58 78.73C59.7456 78.429 58.9948 77.9337 58.3897 77.2851C57.7846 76.6365 57.3425 75.8532 57.1 75C57.3981 74.7353 57.6819 74.4549 57.95 74.16H64.34C64.5054 74.16 64.6641 74.095 64.782 73.979C64.8999 73.863 64.9674 73.7053 64.97 73.54V71.75C64.9807 71.4141 64.9241 71.0794 64.8035 70.7657C64.6829 70.452 64.5007 70.1656 64.2678 69.9233C64.0348 69.681 63.7558 69.4878 63.447 69.355C63.1383 69.2222 62.8061 69.1525 62.47 69.15H61C61.1 68.89 61.19 68.63 61.28 68.37C61.9813 67.5009 62.4525 66.4692 62.65 65.37H73.07V74.14C73.0727 75.3512 73.555 76.5121 74.4114 77.3685C75.2679 78.225 76.4288 78.7073 77.64 78.71L79.57 78.75ZM62.47 70.4C62.6416 70.4038 62.8107 70.442 62.9673 70.5124C63.1238 70.5829 63.2645 70.6841 63.3812 70.81C63.4978 70.936 63.5879 71.0841 63.6461 71.2456C63.7043 71.4071 63.7294 71.5786 63.72 71.75V72.9H59C59.5678 72.1149 60.06 71.2778 60.47 70.4H62.47ZM41.47 64.16H33.11C32.9429 64.16 32.7827 64.0936 32.6645 63.9755C32.5464 63.8573 32.48 63.6971 32.48 63.53V36C32.4826 35.8346 32.5502 35.677 32.668 35.561C32.7859 35.445 32.9446 35.38 33.11 35.38H78.11C78.2744 35.38 78.4321 35.4453 78.5484 35.5616C78.6647 35.6779 78.73 35.8356 78.73 36V57.8H77.64C77.153 57.8057 76.6701 57.8902 76.21 58.05V38.54C76.21 38.3756 76.1447 38.2179 76.0284 38.1016C75.9121 37.9853 75.7544 37.92 75.59 37.92H35.59C35.4246 37.92 35.2659 37.985 35.148 38.101C35.0302 38.217 34.9626 38.3746 34.96 38.54V61C34.96 61.1671 35.0264 61.3273 35.1445 61.4455C35.2627 61.5636 35.4229 61.63 35.59 61.63H42.46C42.4 62 42.36 62.37 42.33 62.75C41.8761 63.0983 41.5635 63.5992 41.45 64.16H41.47ZM52.29 52.44H52.13C47.71 52.44 43.97 55.81 42.75 60.44H36.23V39.17H75V58.68C74.3884 59.1303 73.8972 59.7245 73.57 60.41H61.6C60.4 55.82 56.71 52.5 52.29 52.44ZM62.6 64.16C62.5071 63.7486 62.307 63.3691 62.02 63.06C62.02 62.58 61.94 62.12 61.87 61.66H73.14C73.1009 61.8948 73.0775 62.132 73.07 62.37V64.16H62.6ZM74.32 74.16V62.37C74.3223 62.0297 74.3797 61.692 74.49 61.37C74.8686 60.607 75.4199 59.9427 76.1 59.43C76.5716 59.1695 77.1012 59.032 77.64 59.03H79.57C79.7571 59.0232 79.9436 59.0545 80.1182 59.1221C80.2928 59.1896 80.4518 59.292 80.5856 59.423C80.7193 59.5539 80.8251 59.7108 80.8963 59.8839C80.9676 60.057 81.0028 60.2428 81 60.43V76.12C81 76.486 80.8546 76.837 80.5958 77.0958C80.337 77.3546 79.986 77.5 79.62 77.5H77.64C76.7595 77.5 75.915 77.1502 75.2924 76.5276C74.6698 75.905 74.32 75.0605 74.32 74.18V74.16Z" fill="#002148"/>
<path d="M78.71 76.18C78.8771 76.18 79.0373 76.1136 79.1555 75.9955C79.2736 75.8773 79.34 75.7171 79.34 75.55V61.08C79.3512 60.9913 79.3435 60.9012 79.3172 60.8157C79.2909 60.7303 79.2468 60.6513 79.1876 60.5843C79.1285 60.5172 79.0558 60.4634 78.9743 60.4266C78.8928 60.3898 78.8044 60.3708 78.715 60.3708C78.6256 60.3708 78.5372 60.3898 78.4557 60.4266C78.3742 60.4634 78.3015 60.5172 78.2423 60.5843C78.1832 60.6513 78.1391 60.7303 78.1128 60.8157C78.0865 60.9012 78.0787 60.9913 78.09 61.08V75.55C78.09 75.7154 78.155 75.8741 78.271 75.992C78.387 76.1098 78.5446 76.1774 78.71 76.18Z" fill="#002148"/>
</svg>
