<svg width="122" height="122" viewBox="0 0 122 122" fill="none" xmlns="http://www.w3.org/2000/svg">
<path d="M61 120.75C93.999 120.75 120.75 93.999 120.75 61C120.75 28.001 93.999 1.25 61 1.25C28.001 1.25 1.25 28.001 1.25 61C1.25 93.999 28.001 120.75 61 120.75Z" fill="#F8F8F8" stroke="#001640" stroke-width="2" stroke-miterlimit="10"/>
<path d="M85.25 32.32C85.2474 32.1547 85.1798 31.997 85.062 31.881C84.9441 31.765 84.7854 31.7 84.62 31.7H29.85C29.6978 31.7193 29.558 31.7934 29.4566 31.9085C29.3552 32.0235 29.2992 32.1716 29.2992 32.325C29.2992 32.4784 29.3552 32.6265 29.4566 32.7415C29.558 32.8566 29.6978 32.9307 29.85 32.95H84.62C84.7871 32.95 84.9473 32.8836 85.0655 32.7655C85.1836 32.6473 85.25 32.4871 85.25 32.32ZM73.34 50.67C73.4287 50.6744 73.5173 50.66 73.6001 50.6278C73.6828 50.5956 73.7578 50.5462 73.8201 50.4829C73.8825 50.4196 73.9307 50.3439 73.9617 50.2607C73.9927 50.1775 74.0057 50.0886 74 50V42C74.0151 41.9207 74.0151 41.8393 74 41.76C73.9715 41.682 73.9263 41.6111 73.8676 41.5524C73.8089 41.4937 73.738 41.4485 73.66 41.42C73.5808 41.4038 73.4992 41.4038 73.42 41.42H65.42C65.3313 41.4088 65.2412 41.4165 65.1557 41.4428C65.0702 41.4691 64.9913 41.5132 64.9243 41.5724C64.8572 41.6315 64.8034 41.7042 64.7666 41.7857C64.7298 41.8672 64.7108 41.9556 64.7108 42.045C64.7108 42.1344 64.7298 42.2228 64.7666 42.3043C64.8034 42.3858 64.8572 42.4585 64.9243 42.5177C64.9913 42.5768 65.0702 42.6209 65.1557 42.6472C65.2412 42.6735 65.3313 42.6813 65.42 42.67H71.96L60.46 54L51.24 44.78C51.1239 44.6739 50.9723 44.6151 50.815 44.6151C50.6577 44.6151 50.5061 44.6739 50.39 44.78L42.09 51.7C41.6412 51.3228 41.0773 51.1098 40.4912 51.0959C39.9051 51.082 39.3318 51.2681 38.8656 51.6236C38.3994 51.9792 38.0682 52.4828 37.9266 53.0517C37.7849 53.6206 37.8412 54.2207 38.0862 54.7534C38.3312 55.286 38.7503 55.7192 39.2744 55.9818C39.7986 56.2444 40.3966 56.3207 40.9698 56.1981C41.5431 56.0754 42.0575 55.7612 42.4284 55.3071C42.7992 54.8531 43.0043 54.2862 43.01 53.7C43.0142 53.3573 42.9496 53.0173 42.82 52.7L50.75 46.1L60 55.32C60.1217 55.4349 60.2826 55.4993 60.45 55.5C60.5316 55.5004 60.6124 55.4847 60.6879 55.4539C60.7634 55.423 60.8321 55.3775 60.89 55.32L72.72 43.5V50C72.7146 50.0852 72.7265 50.1706 72.7551 50.2511C72.7837 50.3315 72.8283 50.4053 72.8863 50.468C72.9443 50.5306 73.0144 50.5808 73.0924 50.6156C73.1704 50.6503 73.2546 50.6688 73.34 50.67ZM40.42 55C40.155 55 39.8959 54.9214 39.6755 54.7742C39.4552 54.6269 39.2834 54.4177 39.182 54.1728C39.0806 53.928 39.054 53.6585 39.1057 53.3986C39.1574 53.1387 39.2851 52.8999 39.4725 52.7125C39.6599 52.5251 39.8986 52.3975 40.1586 52.3458C40.4185 52.2941 40.6879 52.3206 40.9328 52.422C41.1776 52.5234 41.3869 52.6952 41.5342 52.9155C41.6814 53.1359 41.76 53.395 41.76 53.66C41.76 53.836 41.7253 54.0102 41.658 54.1728C41.5907 54.3354 41.492 54.4831 41.3675 54.6075C41.2431 54.732 41.0954 54.8307 40.9328 54.898C40.7702 54.9653 40.596 55 40.42 55ZM94.09 79C93.9229 79 93.7627 79.0664 93.6445 79.1845C93.5264 79.3027 93.46 79.4629 93.46 79.63V90.23C93.46 90.2973 93.434 90.3619 93.3874 90.4104C93.3408 90.4589 93.2772 90.4874 93.21 90.49H62.28C62.211 90.49 62.1449 90.4626 62.0961 90.4139C62.0474 90.3651 62.02 90.299 62.02 90.23V79.64C62.0312 79.5513 62.0235 79.4612 61.9972 79.3757C61.9709 79.2903 61.9268 79.2114 61.8676 79.1443C61.8085 79.0772 61.7358 79.0234 61.6543 78.9866C61.5728 78.9498 61.4844 78.9308 61.395 78.9308C61.3056 78.9308 61.2172 78.9498 61.1357 78.9866C61.0542 79.0234 60.9815 79.0772 60.9223 79.1443C60.8632 79.2114 60.8191 79.2903 60.7928 79.3757C60.7665 79.4612 60.7587 79.5513 60.77 79.64V82.51L57.53 80.81C57.467 80.801 57.403 80.801 57.34 80.81C57.484 80.7885 57.6156 80.7162 57.711 80.6062C57.8063 80.4962 57.8592 80.3556 57.86 80.21V68.66C57.8407 68.5079 57.7666 68.368 57.6515 68.2666C57.5365 68.1652 57.3884 68.1092 57.235 68.1092C57.0816 68.1092 56.9335 68.1652 56.8185 68.2666C56.7034 68.368 56.6293 68.5079 56.61 68.66V80.16C56.6108 80.3056 56.6636 80.4462 56.759 80.5562C56.8544 80.6662 56.986 80.7385 57.13 80.76C57.067 80.751 57.003 80.751 56.94 80.76L45.67 86.67C45.5966 86.7069 45.5315 86.7582 45.4784 86.8209C45.4254 86.8835 45.3855 86.9562 45.3612 87.0347C45.3369 87.1131 45.3287 87.1956 45.3371 87.2773C45.3455 87.359 45.3703 87.4381 45.41 87.51C45.4868 87.656 45.6178 87.7661 45.7748 87.8166C45.9319 87.8671 46.1025 87.854 46.25 87.78L57.25 82.02L60.78 83.87V90.19C60.7826 90.5897 60.9425 90.9722 61.2252 91.2548C61.5078 91.5375 61.8903 91.6974 62.29 91.7H93.22C93.6197 91.6974 94.0022 91.5375 94.2848 91.2548C94.5675 90.9722 94.7274 90.5897 94.73 90.19V79.64C94.7313 79.5556 94.7157 79.4718 94.684 79.3935C94.6524 79.3152 94.6052 79.2442 94.5455 79.1845C94.4858 79.1248 94.4148 79.0777 94.3365 79.046C94.2582 79.0143 94.1744 78.9987 94.09 79Z" fill="#002148"/>
<path d="M82.6 63.11H82V37.11C81.9807 36.9578 81.9066 36.8179 81.7915 36.7165C81.6765 36.6151 81.5284 36.5592 81.375 36.5592C81.2216 36.5592 81.0735 36.6151 80.9585 36.7165C80.8434 36.8179 80.7693 36.9578 80.75 37.11V63.11H72.88C72.6817 63.11 72.4853 63.149 72.3021 63.2249C72.1189 63.3008 71.9525 63.412 71.8123 63.5523C71.672 63.6925 71.5608 63.8589 71.4849 64.0421C71.409 64.2253 71.37 64.4217 71.37 64.62V65.52H34.68C34.4148 65.52 34.1604 65.4146 33.9729 65.2271C33.7853 65.0396 33.68 64.7852 33.68 64.52V37.15C33.6607 36.9978 33.5866 36.8579 33.4715 36.7565C33.3565 36.6551 33.2084 36.5992 33.055 36.5992C32.9016 36.5992 32.7535 36.6551 32.6385 36.7565C32.5234 36.8579 32.4493 36.9978 32.43 37.15V64.54C32.43 65.1323 32.6646 65.7006 33.0825 66.1204C33.5005 66.5402 34.0676 66.7773 34.66 66.78H71.37V67.27C71.37 67.4371 71.4364 67.5973 71.5545 67.7155C71.6727 67.8336 71.8329 67.9 72 67.9C72.1671 67.9 72.3273 67.8336 72.4455 67.7155C72.5636 67.5973 72.63 67.4371 72.63 67.27V64.62C72.6286 64.5863 72.6341 64.5527 72.6461 64.5212C72.658 64.4897 72.6762 64.461 72.6996 64.4367C72.7229 64.4124 72.7509 64.3931 72.782 64.3799C72.813 64.3667 72.8463 64.36 72.88 64.36H82.6C82.6689 64.36 82.7351 64.3874 82.7838 64.4361C82.8326 64.4849 82.86 64.551 82.86 64.62V67.27C82.8793 67.4221 82.9534 67.562 83.0685 67.6634C83.1835 67.7648 83.3316 67.8208 83.485 67.8208C83.6384 67.8208 83.7865 67.7648 83.9015 67.6634C84.0166 67.562 84.0907 67.4221 84.11 67.27V64.62C84.1113 64.4213 84.0732 64.2244 83.9978 64.0406C83.9223 63.8568 83.8112 63.6898 83.6707 63.5493C83.5302 63.4088 83.3632 63.2976 83.1794 63.2222C82.9956 63.1468 82.7987 63.1087 82.6 63.11ZM93.21 69.29H62.28C61.8803 69.2926 61.4978 69.4525 61.2152 69.7352C60.9325 70.0178 60.7726 70.4003 60.77 70.8V75.18C60.77 77.95 69.87 81.11 77.85 81.11C85.83 81.11 94.72 78.01 94.72 75.18V70.8C94.7174 70.4003 94.5574 70.0178 94.2748 69.7352C93.9922 69.4525 93.6097 69.2926 93.21 69.29ZM93.46 75.18C93.46 76.5 86.54 79.86 77.85 79.86C69.16 79.86 62 76.46 62 75.18V70.8C62 70.731 62.0274 70.6649 62.0761 70.6161C62.1249 70.5674 62.191 70.54 62.26 70.54H93.19C93.2572 70.5426 93.3208 70.5711 93.3674 70.6196C93.414 70.6681 93.44 70.7327 93.44 70.8L93.46 75.18ZM77.85 83.8C78.7 83.8 79.57 83.8 80.44 83.69C80.523 83.6839 80.6039 83.6609 80.6777 83.6224C80.7515 83.5839 80.8167 83.5307 80.8691 83.466C80.9216 83.4014 80.9603 83.3267 80.9828 83.2465C81.0053 83.1664 81.0111 83.0825 81 83C80.9964 82.9175 80.9759 82.8366 80.9396 82.7624C80.9034 82.6882 80.8522 82.6223 80.7893 82.5688C80.7264 82.5153 80.6532 82.4754 80.5742 82.4515C80.4951 82.4276 80.412 82.4203 80.33 82.43C78.5961 82.57 76.8538 82.57 75.12 82.43C74.9566 82.4214 74.7962 82.4756 74.6715 82.5816C74.5469 82.6876 74.4677 82.8373 74.45 83C74.4361 83.1656 74.4882 83.33 74.595 83.4574C74.7017 83.5847 74.8545 83.6647 75.02 83.68C76 83.76 76.94 83.8 77.85 83.8Z" fill="#002148"/>
</svg>
