<svg width="122" height="122" viewBox="0 0 122 122" fill="none" xmlns="http://www.w3.org/2000/svg">
<path d="M61 120.8C94.0266 120.8 120.8 94.0266 120.8 61C120.8 27.9734 94.0266 1.20001 61 1.20001C27.9734 1.20001 1.2 27.9734 1.2 61C1.2 94.0266 27.9734 120.8 61 120.8Z" fill="#F8F8F8" stroke="#001640" stroke-width="2" stroke-miterlimit="10"/>
<path d="M85.4 91.7C84.5 91.7 83.7 90.9 83.7 90C83.7 89.1 84.5 88.3 85.4 88.3C86.3 88.3 87.1 89.1 87.1 90C87.1 90.9 86.4 91.7 85.4 91.7ZM85.4 89.5C85.2 89.5 85 89.7 85 89.9C85 90.1 85.2 90.3 85.4 90.3C85.6 90.3 85.8 90.1 85.8 89.9C85.8 89.7 85.7 89.5 85.4 89.5ZM85.4 87.8C85 87.8 84.8 87.5 84.8 87.2V77.3C84.8 76.9 85 76.6 85.4 76.6C85.8 76.6 86.1 76.8 86.1 77.2V87.3C86.1 87.5 85.8 87.8 85.4 87.8ZM73 86.1C73.4 86.1 73.7 85.8 73.7 85.4V75.6C73.7 75.2 73.4 74.9 73 74.9H43.2C42.8 74.9 42.5 75.2 42.5 75.6V85.4C42.5 85.8 42.8 86.1 43.2 86.1H73ZM43.8 76.3H72.3V84.7H43.8V76.3Z" fill="#002148"/>
<path d="M42.1 93.3H86.4C90.2 93.3 93.2 90.2 93.2 86.5V77.8C93.2 77.4 92.9 77.1 92.5 77.1H85.8C85.4 77.1 85.1 77.4 85.1 77.8C85.1 78.2 85.4 78.5 85.8 78.5H91.8V86.6C91.8 89.6 89.3 92.1 86.3 92.1C83.3 92.1 80.8 89.6 80.8 86.6V29.5C80.8 29.1 80.5 28.8 80.1 28.8H35.9C35.5 28.8 35.2 29.1 35.2 29.5V38.9C35.2 39.3 35.5 39.6 35.9 39.6C36.3 39.6 36.6 39.3 36.6 38.9V30.2H79.5V86.6C79.5 88.4 80.2 90.2 81.6 91.5L82.2 92.1H42.1C39.1 92.1 36.6 89.6 36.6 86.6V72.1C36.6 71.7 36.3 71.4 35.9 71.4C35.5 71.4 35.2 71.7 35.2 72.1V86.4C35.3 90.2 38.3 93.3 42.1 93.3Z" fill="#002148"/>
<path d="M72.4 68.8H63.8C63.4 68.8 63.1 69.1 63.1 69.5C63.1 69.9 63.4 70.2 63.8 70.2H72.4C72.8 70.2 73.1 69.9 73.1 69.5C73.1 69.1 72.8 68.8 72.4 68.8ZM72.4 62.6H66.9C66.5 62.6 66.2 62.9 66.2 63.3C66.2 63.7 66.5 64 66.9 64H72.4C72.8 64 73.1 63.7 73.1 63.3C73.1 62.9 72.8 62.6 72.4 62.6ZM72.4 48.2H66.3C65.9 48.2 65.6 48.5 65.6 48.9C65.6 49.3 65.9 49.6 66.3 49.6H72.4C72.8 49.6 73.1 49.3 73.1 48.9C73.1 48.5 72.8 48.2 72.4 48.2ZM72.4 42.1H66.3C65.9 42.1 65.6 42.4 65.6 42.8C65.6 43.2 65.9 43.5 66.3 43.5H72.4C72.8 43.5 73.1 43.2 73.1 42.8C73.1 42.4 72.8 42.1 72.4 42.1ZM72.4 35.9H61.7C61.3 35.9 61 36.2 61 36.6C61 37 61.3 37.3 61.7 37.3H72.4C72.8 37.3 73.1 37 73.1 36.6C73.1 36.2 72.8 35.9 72.4 35.9ZM47.1 71.3C45.6 71.3 44.6 71.2 44.5 71.2C44.4 71.2 44.2 71.2 44.1 71.1C43.6 71 42.9 70.9 42.4 70.5C41.4 69.6 41.8 68.8 42.1 68.4C42.7 67.7 43.1 67.7 44 67.7C46.7 67.6 51.8 67 54.3 63.8C54.9 63.2 54.9 62.2 54.8 62L54.7 61.9C54.7 61.8 54.6 61.7 54.5 61.6C53.9 60.5 52.1 57.3 54.7 54.2C55.5 53.2 56.7 52.7 57.9 52.7C59.2 52.7 60.4 53.2 61.5 54.1C63 55.3 64 57.6 64.1 59.9V60.2C64.1 62.2 63.4 64.1 62 65.6C57.7 70.5 50.8 71.3 47.1 71.3ZM43.1 69.2L43.3 69.4C43.5 69.6 43.9 69.6 44.2 69.7C44.3 69.7 44.5 69.7 44.6 69.8C45 69.9 55.3 71.1 60.9 64.5C62.4 62.8 62.6 61 62.6 60.1V59.9C62.6 58 61.7 56.1 60.6 55.2C59.6 54.3 58.6 54.1 57.9 54.1C57.1 54.1 56.3 54.5 55.8 55.1C53.8 57.5 55.2 59.9 55.7 61C55.8 61.1 55.8 61.2 55.9 61.3C56.5 62.2 56.2 63.8 55.3 64.8C52.4 68.3 47 69 43.9 69.1C43.3 69 43.3 69 43.1 69.2ZM37.6 69.2C36.4 69.2 35.2 68.9 34 68.4C32.6 67.7 30.7 66.4 29.7 63.6C26.4 54.5 33.4 45.6 33.4 45.5L33.5 45.4C33.6 45.3 33.7 45.2 33.8 45C34.1 44.7 34.4 44.3 34.8 44.1C35.1 43.9 35.4 43.9 35.8 43.9C36.4 43.9 36.8 44.3 36.9 44.9C37.1 45.5 37 45.9 36.6 46.8C35.3 49.2 33.4 53.9 34.7 57.7C35 58.4 35.8 59 36.1 59H36.4C37.7 59 41.5 59 42.9 62.9C43.3 63.9 43.3 65 42.8 66C42.3 67.2 41.1 68.3 39.6 68.9C39.1 69.1 38.4 69.2 37.6 69.2ZM34.5 46.4C33.9 47.1 28.1 55.2 31 63.1C31.8 65.4 33.4 66.6 34.5 67.1C36 67.8 37.9 68 39.2 67.5C40.4 67 41.2 66.3 41.6 65.4C41.9 64.7 41.9 64 41.6 63.3C40.5 60.3 37.7 60.3 36.4 60.3H36.1C35.1 60.3 33.8 59.3 33.3 58.1C31.8 53.8 33.9 48.7 35.2 46.1C35.5 45.6 35.5 45.5 35.4 45.3H35.2C35 45.4 34.8 45.6 34.7 45.8C34.8 46 34.7 46.2 34.5 46.4ZM60.3 52.3H60.1C59.3 52.1 59 51.9 58.5 51.1C55.7 46.9 52.8 44.5 49.9 44C49.1 43.9 48.2 44.3 48 44.6L47.9 44.7C46.3 47.7 44.1 49 41.3 48.5C40.2 48.3 39.2 47.7 38.5 46.8C37.7 45.7 37.5 44.3 37.7 42.6C38.2 39.6 41.3 36.4 45.5 36.3H46.2V36.4C46.4 36.4 46.7 36.5 46.9 36.5C47 36.5 47.2 36.5 47.3 36.6C56.7 38.2 61.1 48.8 61.1 48.9C61.2 49.1 61.2 49.2 61.2 49.3C61.4 49.8 61.6 50.3 61.5 50.9V51C61.4 52.1 60.7 52.3 60.3 52.3ZM49.6 42.5C49.8 42.5 50 42.5 50.2 42.6C53.5 43.1 56.7 45.7 59.7 50.3C59.9 50.7 60 50.8 60.1 50.8C60.1 50.8 60.2 50.8 60.3 50.9C60.3 50.9 60.3 50.8 60.4 50.7C60.4 50.4 60.3 50.1 60.2 49.7C60.2 49.6 60.1 49.4 60.1 49.3C60.1 49.3 56 39.4 47.4 38C47.3 38 47.1 38 47 37.9C46.7 37.9 46.4 37.8 46.1 37.8H45.1C41.6 38.2 39.6 40.9 39.3 42.8C39.1 44.1 39.3 45.1 39.8 45.9C40.2 46.5 40.9 46.9 41.7 47.1C44.5 47.6 46 45.6 46.8 44L46.9 43.8C47.4 43.1 48.5 42.5 49.6 42.5Z" fill="#002148"/>
<path d="M46.6 61C44.9 61 43.2 60.2 42.2 58.7C41.4 57.6 41.1 56.2 41.3 54.8C41.5 53.4 42.3 52.1 43.5 51.3C44.7 50.5 46.1 50.2 47.5 50.4C48.9 50.6 50.1 51.4 51 52.6C52.7 55 52.1 58.4 49.7 60.1C48.8 60.7 47.7 61 46.6 61ZM46.6 51.7C45.8 51.7 45 51.9 44.4 52.4C43.5 53 42.9 54 42.7 55C42.5 56 42.8 57 43.4 57.9C44.6 59.7 47.1 60.1 48.9 58.9C50.7 57.7 51.1 55.2 49.8 53.4C49.2 52.5 48.3 52 47.3 51.8C47.1 51.7 46.9 51.7 46.6 51.7Z" fill="#002148"/>
</svg>
