<svg width="250" height="90" viewBox="0 0 250 90" fill="none" xmlns="http://www.w3.org/2000/svg">
<path d="M129.735 39.5357C129.735 42 129.314 45.2143 125.526 45.2143C124.474 45.2143 123.001 45.1071 121.949 45L121.633 44.8928V30.6428L121.949 30.5357C122.79 30.4286 124.158 30.4286 125.526 30.4286C129.314 30.4286 129.735 33.6428 129.735 36.1071V39.5357ZM136.048 36C136.048 28.9286 132.365 25.0714 125.526 25.0714C121.423 25.0714 117.845 25.9286 116.477 26.25C115.32 26.4643 115.32 26.6786 115.32 27.2143V58.0714C115.32 58.2857 115.635 58.6071 115.951 58.6071H121.212C121.528 58.6071 121.738 58.2857 121.738 58.0714V50.0357L122.159 50.1428C123.527 50.25 124.895 50.4643 125.631 50.4643C132.471 50.4643 136.153 46.5 136.153 39.5357V36H136.048Z" fill="white"/>
<path d="M110.795 49.5V46.0714C110.795 45.9643 110.795 45.6429 110.164 45.6429H108.06C106.481 45.6429 106.271 45 106.271 43.2857V30.1072H110.164C110.48 30.1072 110.69 29.7857 110.69 29.4643V25.9286C110.69 25.6072 110.48 25.3929 110.164 25.3929H106.271V20.3572C106.271 20.1429 106.166 19.9286 105.85 19.9286H105.745L100.484 20.8929C100.168 20.8929 99.8527 21.1072 99.8527 21.4286V25.3929H96.0648C95.7491 25.3929 95.4335 25.7143 95.4335 26.0357V28.9286C95.4335 29.3572 95.7491 29.5714 96.0648 29.5714L99.7475 30.2143V43.2857C99.7475 49.3929 102.062 50.5714 106.692 50.5714C107.955 50.5714 108.796 50.4643 110.059 50.1429C110.585 49.9286 110.795 49.8214 110.795 49.5Z" fill="white"/>
<path d="M92.1717 49.0714V45.1071C92.1717 44.8928 91.8561 44.6786 91.6456 44.6786H91.5404C89.9621 44.7857 88.6995 45 86.2795 45C84.4907 45 82.3864 44.0357 82.3864 39.6428V35.8928C82.3864 31.3928 84.4907 30.4286 86.2795 30.4286C88.8047 30.4286 89.9621 30.5357 91.5404 30.75H91.6456C91.8561 30.75 92.1717 30.6428 92.1717 30.3214V26.3571C92.1717 25.9286 92.0665 25.8214 91.5404 25.7143C90.2778 25.3928 88.3838 25.0714 85.8586 25.0714C79.7559 25.0714 76.0732 29.1428 76.0732 35.8928V39.6428C76.0732 46.3928 79.7559 50.4643 85.8586 50.4643C88.3838 50.4643 90.2778 50.0357 91.5404 49.8214C92.0665 49.6071 92.1717 49.5 92.1717 49.0714Z" fill="white"/>
<path d="M171.402 39.3214C171.402 44.0357 169.087 45 167.193 45C164.457 45 162.984 42.9643 162.984 39.3214V36.2143C162.984 32.4643 164.457 30.5357 167.193 30.5357C169.087 30.5357 171.402 31.5 171.402 36.2143V39.3214ZM177.715 36.2143C177.715 29.1428 173.927 25.0714 167.298 25.0714C160.669 25.0714 156.776 29.25 156.776 36.2143V39.3214C156.776 46.2857 160.669 50.4643 167.298 50.4643C173.927 50.4643 177.715 46.3928 177.715 39.3214V36.2143Z" fill="white"/>
<path d="M153.514 25.0714C151.515 25.0714 149.411 25.8214 147.938 27.1071L147.412 27.5357V25.9286C147.412 25.6071 147.201 25.3928 146.886 25.3928H141.73C141.414 25.3928 141.204 25.6071 141.204 25.9286V49.3928C141.204 49.7143 141.519 50.0357 141.835 50.0357H147.096C147.306 50.0357 147.622 49.7143 147.622 49.3928V32.0357L147.727 31.9286C149.726 30.8571 151.515 30.4286 153.514 30.4286H153.83C154.04 30.4286 154.251 30.1071 154.251 29.8928V25.7143C154.04 25.3928 153.83 25.0714 153.514 25.0714Z" fill="white"/>
<path d="M35.9849 42L40.5093 49.2857C40.9302 49.9285 41.1406 50.1428 41.4562 50.1428H47.9798C48.085 50.1428 48.2955 50.0357 48.2955 49.8214C48.2955 49.7143 48.1903 49.7143 48.1903 49.7143L40.1936 37.7143L47.4537 26.0357C47.4537 25.9285 47.4537 25.9285 47.4537 25.8214C47.4537 25.7143 47.4537 25.6071 47.3485 25.6071H41.5615C41.351 25.6071 41.1406 25.7143 40.7197 26.3571L36.9318 32.7857L32.7231 26.3571C32.4074 25.8214 32.197 25.6071 31.8813 25.6071H25.463C25.3578 25.6071 25.1473 25.7143 25.1473 25.9285C25.1473 26.0357 25.1473 26.0357 25.1473 26.0357L32.6179 37.3928L24.9369 49.7143C24.9369 49.8214 24.9369 49.8214 24.9369 49.9285C24.9369 50.1428 25.0421 50.1428 25.0421 50.1428H30.8291C31.1448 50.1428 31.3552 50.0357 31.7761 49.3928L35.9849 42Z" fill="white"/>
<path d="M64.6044 44.5714L64.3939 44.6786C63.1313 45.3214 61.8687 45.6428 60.7113 45.6428C58.8173 45.6428 57.6599 45.2143 57.6599 43.1786V42.75C57.6599 40.1786 58.8173 39.2143 61.7635 39.2143H64.6044V44.5714ZM61.0269 25.0714C58.2912 25.0714 55.3451 25.6071 53.5564 26.0357C53.346 26.1428 52.9251 26.25 52.9251 26.6786V30.2143C52.9251 30.5357 53.0303 30.6428 53.4512 30.6428H53.5564C54.819 30.5357 57.9756 30.3214 60.7113 30.3214C62.5 30.3214 64.2887 30.75 64.2887 33.75V35.5714H61.6582C54.5034 35.5714 51.3468 37.7143 51.3468 42.75V43.1786C51.3468 49.3928 55.766 50.4643 58.3965 50.4643C60.7113 50.4643 62.3948 49.8214 64.1835 48.5357L64.7096 48.1071V49.3928C64.7096 49.7143 64.92 50.0357 65.2357 50.0357H70.0758C70.3914 50.0357 70.6018 49.7143 70.6018 49.3928V33.75C70.8123 27.9643 67.6557 25.0714 61.0269 25.0714Z" fill="white"/>
<path d="M15.2568 35.8928H6.73403V35.3571C6.73403 32.1428 8.31231 30.1071 11.048 30.1071C13.6785 30.1071 15.2568 32.0357 15.2568 35.3571V35.8928ZM11.048 25.0714C4.41921 25.0714 0.420898 29.3571 0.420898 36.3214V39.4286C0.420898 49.6071 8.52275 50.4643 10.9428 50.4643C14.8359 50.4643 17.1507 50.0357 19.6759 49.3928C20.3073 49.2857 20.3073 49.0714 20.3073 48.5357V45.1071C20.3073 45 20.3073 44.6786 19.7812 44.6786H19.6759C17.8872 44.8928 13.9941 45.1071 11.3637 45.1071C8.31231 45.1071 6.62881 43.2857 6.62881 39.9643V39.6428H20.7281C21.2542 39.6428 21.3594 39.2143 21.3594 38.8928V36.3214C21.4647 29.3571 17.5716 25.0714 11.048 25.0714Z" fill="white"/>
<path d="M30.1978 71.7857C29.8821 71.7857 29.5665 71.8928 28.4091 71.8928C27.2517 71.8928 26.4099 71.5714 26.4099 70.0714V66.8571C26.4099 65.3571 27.3569 65.0357 28.4091 65.0357C29.4613 65.0357 29.8821 65.1428 30.1978 65.1428C30.303 65.25 30.303 65.25 30.303 65.3571V65.8928C30.303 66 30.1978 66.1071 30.1978 66.1071H28.4091C27.883 66.1071 27.6725 66.2143 27.6725 66.8571V67.8214H30.0926C30.1978 67.8214 30.303 67.9286 30.303 67.9286V68.5714C30.303 68.6786 30.1978 68.6786 30.0926 68.6786H27.6725V69.8571C27.6725 70.5 27.883 70.6071 28.4091 70.6071H30.1978C30.303 70.6071 30.303 70.7143 30.303 70.8214V71.3571C30.303 71.6786 30.303 71.7857 30.1978 71.7857Z" fill="white"/>
<path d="M38.0892 71.8928H37.037C36.9318 71.8928 36.9318 71.7857 36.8266 71.6786L35.5639 69.5357L34.3013 71.6786C34.3013 71.7857 34.1961 71.8928 34.0909 71.8928H33.1439C33.0387 71.8928 33.0387 71.7857 33.0387 71.7857V71.6786L34.9326 68.4643L32.9335 65.25V65.1428C32.9335 65.0357 33.0387 65.0357 33.0387 65.0357H34.0909C34.1961 65.0357 34.1961 65.1428 34.3013 65.1428L35.5639 67.1786L36.8266 65.1428C36.9318 65.0357 36.9318 65.0357 37.037 65.0357H37.984C38.0892 65.0357 38.0892 65.0357 38.0892 65.1428V65.25L36.1953 68.4643L38.1944 71.6786V71.7857C38.2996 71.7857 38.1944 71.8928 38.0892 71.8928Z" fill="white"/>
<path d="M41.9823 71.8928H41.1405C41.0353 71.8928 40.9301 71.7857 40.9301 71.6785V65.25C40.9301 65.1428 41.0353 65.1428 41.1405 65.1428H41.9823C42.0875 65.1428 42.1927 65.25 42.1927 65.25V71.6785C42.1927 71.6785 42.1927 71.8928 41.9823 71.8928Z" fill="white"/>
<path d="M49.4529 66.1071H47.8746V71.6786C47.8746 71.7857 47.7694 71.8929 47.6642 71.8929H46.8224C46.7172 71.8929 46.612 71.7857 46.612 71.6786V66.1071H45.1389C45.0337 66.1071 44.9285 66.1071 44.9285 66V65.3571C44.9285 65.25 45.0337 65.25 45.1389 65.25H49.4529C49.5581 65.25 49.5581 65.3571 49.5581 65.3571L49.4529 66.1071C49.6633 66.1071 49.5581 66.1071 49.4529 66.1071Z" fill="white"/>
<path d="M54.7138 71.8928C53.2407 71.8928 52.2938 71.25 52.2938 69.3214V65.25C52.2938 65.1428 52.399 65.1428 52.399 65.1428H53.346C53.4512 65.1428 53.4512 65.25 53.4512 65.25V69.3214C53.4512 70.2857 53.7668 70.8214 54.7138 70.8214C55.6608 70.8214 55.9764 70.2857 55.9764 69.3214V65.25C55.9764 65.1428 56.0816 65.1428 56.1869 65.1428H57.1338C57.239 65.1428 57.239 65.25 57.239 65.25V69.3214C57.239 71.25 56.1869 71.8928 54.7138 71.8928Z" fill="white"/>
<path d="M61.9739 71.8929C61.3426 71.8929 60.8165 71.8929 60.3956 71.7857C60.2904 71.7857 60.2904 71.6786 60.2904 71.6786V71.0357C60.2904 70.9286 60.3956 70.9286 60.3956 70.9286C60.8165 71.0357 61.6582 71.0357 61.9739 71.0357C62.8156 71.0357 63.0261 70.8214 63.0261 70.2857C63.0261 69.8572 62.9209 69.75 62.2895 69.3214L61.0269 68.3572C60.1852 67.8214 59.9747 67.2857 59.9747 66.6429C59.9747 65.6786 60.606 64.9286 62.2895 64.9286C62.9209 64.9286 63.6574 65.0357 63.973 65.0357C64.0783 65.0357 64.1835 65.1429 64.1835 65.1429V65.7857C64.1835 65.8929 64.0783 65.8929 64.0783 65.8929H63.973C63.4469 65.7857 62.8156 65.7857 62.1843 65.7857C61.553 65.7857 61.2374 66 61.2374 66.4286C61.2374 66.75 61.3426 66.8572 61.8687 67.2857L63.0261 67.9286C63.973 68.4643 64.2887 69 64.2887 69.75C64.2887 70.9286 63.7626 71.8929 61.9739 71.8929Z" fill="white"/>
<path d="M73.548 66.2143C73.548 66.1071 73.548 66.1071 73.548 66.2143C73.3376 66.1071 73.3376 66.1071 73.3376 66.2143L72.7063 69H74.2845L73.548 66.2143ZM75.968 71.8928H75.0211C74.9159 71.8928 74.9158 71.7857 74.9158 71.6786L74.495 69.9643H72.4958L72.0749 71.6786C72.0749 71.7857 71.9697 71.8928 71.9697 71.8928H71.0228C70.9175 71.8928 70.8123 71.7857 70.8123 71.6786H70.9175L72.3906 66C72.601 65.1428 73.2323 65.0357 73.6532 65.0357C74.0741 65.0357 74.7054 65.1428 74.9158 66L76.3889 71.6786C76.1785 71.7857 76.0733 71.8928 75.968 71.8928Z" fill="white"/>
<path d="M82.5968 71.7857C82.4916 71.7857 81.8603 71.8928 81.1238 71.8928C80.0716 71.8928 78.5985 71.3571 78.5985 69.1071V67.8214C78.5985 65.4643 80.0716 65.0357 81.1238 65.0357C81.7551 65.0357 82.3864 65.1428 82.5968 65.1428C82.702 65.1428 82.8073 65.25 82.8073 65.25V65.8928C82.8073 66 82.702 66.1071 82.5968 66.1071C82.2812 66 81.6499 66 81.229 66C80.4924 66 79.8611 66.4286 79.8611 67.7143V69C79.8611 70.2857 80.4924 70.7143 81.229 70.7143C81.6499 70.7143 82.2812 70.7143 82.5968 70.6071C82.702 70.6071 82.8073 70.7143 82.8073 70.8214V71.4643C82.8073 71.6786 82.702 71.6786 82.5968 71.7857Z" fill="white"/>
<path d="M89.7517 66.1071H88.1734V71.6786C88.1734 71.7857 88.0682 71.8929 88.0682 71.8929H87.1212C87.016 71.8929 87.016 71.7857 87.016 71.6786V66.1071H85.4377C85.3325 66.1071 85.3325 66.1071 85.3325 66V65.3571C85.3325 65.25 85.4377 65.25 85.4377 65.25H89.8569C89.9621 65.25 89.9621 65.3571 89.9621 65.3571V66C89.9621 66.1071 89.8569 66.1071 89.7517 66.1071Z" fill="white"/>
<path d="M95.0126 66.2143C95.0126 66.1071 94.9074 66.1071 95.0126 66.2143C94.8022 66.1071 94.8022 66.1071 94.8022 66.2143L94.1709 69H95.6439L95.0126 66.2143ZM97.4326 71.8928H96.4857C96.3805 71.8928 96.3805 71.7857 96.3805 71.6786L95.9596 69.9643H93.8552L93.4343 71.6786C93.4343 71.7857 93.3291 71.8928 93.3291 71.8928H92.3821C92.2769 71.8928 92.2769 71.7857 92.2769 71.6786L93.75 66C93.8552 65.1428 94.5917 65.0357 95.0126 65.0357C95.4335 65.0357 96.0648 65.1428 96.2752 66L97.7483 71.6786C97.5379 71.7857 97.5379 71.8928 97.4326 71.8928Z" fill="white"/>
<path d="M107.639 67.0714C107.639 66.3214 107.218 66 106.271 66C106.166 66 105.64 66.1072 105.534 66.1072V68.25C105.64 68.25 106.166 68.25 106.271 68.25C107.323 68.25 107.639 67.9286 107.639 67.0714ZM106.271 69.3214C106.061 69.3214 105.64 69.2143 105.534 69.2143V71.5715C105.534 71.6786 105.429 71.7857 105.324 71.7857H104.377C104.272 71.7857 104.272 71.6786 104.272 71.5715V65.3572C104.272 65.1429 104.377 65.1429 104.588 65.0357C105.008 64.9286 105.64 64.9286 106.376 64.9286C107.744 64.9286 108.901 65.3572 108.901 66.9643V67.0714C108.901 68.7857 107.639 69.3214 106.271 69.3214Z" fill="white"/>
<path d="M115.109 66.9643C115.109 66.3214 114.689 66 113.742 66C113.531 66 113.11 66 112.9 66V68.0357C113.005 68.0357 113.531 68.0357 113.742 68.0357C114.583 68.1429 115.109 67.9286 115.109 66.9643ZM116.372 71.8929H115.32C115.215 71.8929 115.215 71.7857 115.109 71.6786L113.847 69.3214H113.742C113.531 69.3214 113.11 69.2143 112.9 69.2143V71.6786C112.9 71.7857 112.795 71.8929 112.795 71.8929H111.848C111.742 71.8929 111.742 71.7857 111.742 71.6786V65.3572C111.742 65.1429 111.848 65.1429 112.058 65.0357C112.479 64.9286 113.11 64.9286 113.847 64.9286C115.215 64.9286 116.372 65.3572 116.372 66.9643V67.0714C116.372 68.0357 115.951 68.6786 115.109 69L116.477 71.5715C116.582 71.5715 116.583 71.6786 116.583 71.6786C116.477 71.7857 116.477 71.8929 116.372 71.8929Z" fill="white"/>
<path d="M123.001 67.8214C123.001 66.5357 122.58 66 121.738 66C120.896 66 120.476 66.5357 120.476 67.8214V69.1072C120.476 70.2857 120.896 70.8214 121.738 70.8214C122.685 70.8214 123.001 70.2857 123.001 69.1072V67.8214ZM121.633 71.8929C120.16 71.8929 119.108 71.1429 119.108 69.1072V67.8214C119.108 65.7857 120.265 64.9286 121.633 64.9286C123.106 64.9286 124.158 65.7857 124.158 67.8214V69.1072C124.263 71.1429 123.211 71.8929 121.633 71.8929Z" fill="white"/>
<path d="M130.682 69.75C130.682 69.3214 130.366 68.7857 129.524 68.7857H128.367V70.8214C128.577 70.8214 128.998 70.8214 129.104 70.8214C130.261 70.8214 130.577 70.5 130.682 69.75ZM130.577 66.9643C130.577 66.3214 130.156 66 129.104 66C128.893 66 128.683 66 128.472 66.1071V67.9286H129.63C130.366 67.9286 130.577 67.5 130.577 66.9643ZM129.209 71.8928C128.472 71.8928 127.946 71.8928 127.736 71.7857C127.42 71.6786 127.315 71.6786 127.315 71.3571V65.5714C127.315 65.25 127.42 65.1428 127.736 65.1428C127.946 65.0357 128.577 65.0357 129.209 65.0357C130.787 65.0357 131.944 65.4643 131.944 66.8571V66.9643C131.944 67.6071 131.734 68.1428 131.208 68.3571C131.734 68.5714 132.05 69 132.05 69.75V69.8571C131.839 71.4643 130.787 71.8928 129.209 71.8928Z" fill="white"/>
<path d="M137.205 66.2143C137.1 66.1071 137.1 66.1071 137.1 66.1071C136.995 66.1071 136.995 66.1071 136.995 66.2143L136.364 69H137.942L137.205 66.2143ZM139.625 71.8928H138.678C138.573 71.8928 138.573 71.7857 138.573 71.6786L138.152 69.9643H136.153L135.732 71.6786C135.732 71.7857 135.627 71.8928 135.627 71.8928H134.68C134.575 71.8928 134.575 71.7857 134.575 71.6786L136.048 66C136.258 65.1428 136.995 65.0357 137.311 65.0357C137.731 65.0357 138.258 65.1428 138.573 66L140.046 71.6786C139.731 71.7857 139.731 71.8928 139.625 71.8928Z" fill="white"/>
<path d="M146.465 66.1071H144.886V71.6786C144.886 71.7857 144.781 71.8929 144.781 71.8929H143.834C143.729 71.8929 143.729 71.7857 143.729 71.6786V66.1071H142.151C142.045 66.1071 142.045 66.1071 142.045 66V65.3571C142.045 65.25 142.151 65.25 142.151 65.25H146.57C146.675 65.25 146.675 65.3571 146.675 65.3571V66C146.675 66.1071 146.57 66.1071 146.465 66.1071Z" fill="white"/>
<path d="M214.226 36.4286C216.751 40.1786 221.696 40.9286 225.274 38.4643C228.851 35.8929 229.693 30.8572 227.168 27.2143C224.642 23.5714 219.697 22.7143 216.225 25.2857C212.542 27.8572 211.7 32.8929 214.226 36.4286Z" fill="white"/>
<path d="M249.474 40.2857V39.8571C249.369 36 247.685 32.5714 245.581 30.75C243.792 29.25 241.898 28.6071 240.32 28.6071C238.531 28.6071 236.848 29.3571 235.69 30.75C231.271 36.1071 235.164 41.5714 235.795 42.8571C236.427 43.8214 236.111 46.1785 234.954 47.5714C230.219 53.4643 220.96 54.4285 216.54 54.6428C215.067 54.6428 214.752 54.75 214.226 55.3928C213.699 56.0357 213.805 56.6785 214.646 57.4285C215.383 58.0714 216.646 58.0714 217.487 58.2857C220.644 58.7143 236.953 59.8928 246.212 48.75C248.527 46.0714 249.474 43.0714 249.474 40.2857Z" fill="white"/>
<path d="M202.757 13.6071C202.441 13.6071 202.125 13.7143 201.81 13.8214C200.863 14.1428 200.337 15.3214 199.6 15.8571C197.601 18.4285 188.552 32.25 193.497 45.9643C196.338 54.1071 204.545 56.0357 209.07 54.3214C213.594 52.5 215.173 48.75 214.015 45.5357C211.911 39.6428 206.334 39.6428 204.125 39.6428C203.914 39.6428 203.704 39.6428 203.598 39.6428C202.441 39.6428 200.652 38.25 200.021 36.5357C197.496 29.3571 201.284 20.6785 203.283 16.8214C203.914 15.5357 203.914 15.2143 203.704 14.4643C203.598 13.9285 203.283 13.6071 202.757 13.6071Z" fill="white"/>
<path d="M219.487 0.642883C212.542 0.750026 208.018 6.21431 207.386 10.3929C206.545 15.3215 208.965 18.5357 212.437 19.1786C219.066 20.3572 221.801 14.25 222.538 12.9643C223.169 11.8929 225.274 11.0357 226.957 11.3572C234.322 12.6429 239.794 20.25 242.214 24.1072C242.95 25.3929 243.161 25.5 244.003 25.6072C244.739 25.7143 245.265 25.2857 245.476 24.2143C245.581 23.25 245.055 22.1786 244.844 21.3215C243.687 18.3215 236.427 3.32145 222.327 0.857169C221.591 0.750026 220.854 0.642883 220.013 0.642883C220.013 0.642883 219.487 0.642883 219.487 0.642883Z" fill="white"/>
</svg>
