<svg width="17" height="16" viewBox="0 0 17 16" fill="none" xmlns="http://www.w3.org/2000/svg">
<path d="M10.5551 6.73958C10.5551 5.98958 10.3693 5.40278 9.99776 4.97917C9.62623 4.55556 9.11408 4.34375 8.4613 4.34375C8.0238 4.34375 7.59325 4.44965 7.16964 4.66146C6.74603 4.87326 6.36408 5.16667 6.0238 5.54167C5.68353 5.91667 5.40748 6.39236 5.19568 6.96875C4.98387 7.54514 4.87797 8.17014 4.87797 8.84375C4.87797 9.62153 5.06373 10.2222 5.43526 10.6458C5.80679 11.0694 6.32936 11.2812 7.00297 11.2812C7.66964 11.2812 8.28075 11.0503 8.8363 10.5885C9.39186 10.1267 9.81721 9.55035 10.1123 8.85938C10.4075 8.1684 10.5551 7.46181 10.5551 6.73958ZM16.4301 8C16.4301 8.77083 16.3016 9.45486 16.0446 10.0521C15.7877 10.6493 15.4457 11.1181 15.0186 11.4583C14.5915 11.7986 14.1349 12.0573 13.6488 12.2344C13.1627 12.4115 12.6592 12.5069 12.1384 12.5208C12.0967 12.5208 12.0429 12.5226 11.9769 12.526C11.911 12.5295 11.8537 12.5312 11.8051 12.5312C11.1453 12.5312 10.6523 12.3472 10.3259 11.9792C10.1314 11.75 10.0169 11.4618 9.98214 11.1146C9.62103 11.5729 9.16443 11.9549 8.61235 12.2604C8.06026 12.566 7.45783 12.7188 6.80505 12.7188C5.687 12.7188 4.82068 12.3872 4.2061 11.724C3.59151 11.0608 3.28422 10.125 3.28422 8.91667C3.28422 7.82639 3.51339 6.81944 3.97172 5.89583C4.43005 4.97222 5.05158 4.24132 5.8363 3.70312C6.62103 3.16493 7.47519 2.89583 8.3988 2.89583C9.00297 2.89583 9.54117 3.0191 10.0134 3.26562C10.4856 3.51215 10.8537 3.85764 11.1176 4.30208L11.1384 4.10417L11.253 3.52083C11.2599 3.47917 11.279 3.4375 11.3103 3.39583C11.3415 3.35417 11.3745 3.33333 11.4092 3.33333H12.6384C12.6731 3.33333 12.7182 3.37153 12.7738 3.44792C12.8085 3.48264 12.8189 3.53819 12.8051 3.61458L11.5551 10.0104C11.5203 10.1771 11.503 10.3438 11.503 10.5104C11.503 10.7812 11.5464 10.9618 11.6332 11.0521C11.72 11.1424 11.8745 11.1875 12.0967 11.1875C12.2912 11.1806 12.4891 11.1615 12.6905 11.1302C12.8919 11.099 13.1453 11.0156 13.4509 10.8802C13.7564 10.7448 14.0238 10.5712 14.253 10.3594C14.4821 10.1476 14.6801 9.83681 14.8467 9.42708C15.0134 9.01736 15.0967 8.54167 15.0967 8C15.0967 5.97222 14.4926 4.35417 13.2842 3.14583C12.0759 1.9375 10.4578 1.33333 8.43005 1.33333C7.52728 1.33333 6.66443 1.51042 5.84151 1.86458C5.0186 2.21875 4.31026 2.69271 3.71651 3.28646C3.12276 3.88021 2.6488 4.58854 2.29464 5.41146C1.94047 6.23438 1.76339 7.09722 1.76339 8C1.76339 8.90278 1.94047 9.76562 2.29464 10.5885C2.6488 11.4115 3.12276 12.1198 3.71651 12.7135C4.31026 13.3073 5.0186 13.7812 5.84151 14.1354C6.66443 14.4896 7.52728 14.6667 8.43005 14.6667C10.0134 14.6667 11.4196 14.1667 12.6488 13.1667C12.7252 13.1042 12.8085 13.0764 12.8988 13.0833C12.9891 13.0903 13.062 13.1319 13.1176 13.2083L13.5446 13.7188C13.6002 13.8021 13.6245 13.8854 13.6176 13.9688C13.6037 14.059 13.562 14.1354 13.4926 14.1979C12.7842 14.7743 11.9943 15.2188 11.1228 15.5312C10.2512 15.8438 9.35367 16 8.43005 16C7.34672 16 6.312 15.7882 5.32589 15.3646C4.33978 14.941 3.48908 14.3715 2.7738 13.6562C2.05853 12.941 1.48908 12.0903 1.06547 11.1042C0.641859 10.1181 0.430054 9.08333 0.430054 8C0.430054 6.91667 0.641859 5.88194 1.06547 4.89583C1.48908 3.90972 2.05853 3.05903 2.7738 2.34375C3.48908 1.62847 4.33978 1.05903 5.32589 0.635417C6.312 0.211806 7.34672 0 8.43005 0C10.8189 0 12.7495 0.736111 14.2217 2.20833C15.6939 3.68056 16.4301 5.61111 16.4301 8Z" fill="#1E2736"/>
</svg>
