<svg width="14" height="16" viewBox="0 0 14 16" fill="none" xmlns="http://www.w3.org/2000/svg">
<path d="M8.6725 11.1071V12.9911C8.6725 13.3899 8.55643 13.5893 8.32428 13.5893C8.18738 13.5893 8.05345 13.5238 7.9225 13.3929V10.7054C8.05345 10.5744 8.18738 10.5089 8.32428 10.5089C8.55643 10.5089 8.6725 10.7083 8.6725 11.1071ZM11.6904 11.1161V11.5268H10.8868V11.1161C10.8868 10.7113 11.0207 10.5089 11.2886 10.5089C11.5564 10.5089 11.6904 10.7113 11.6904 11.1161ZM3.06536 9.16964H4.02071V8.33036H1.235V9.16964H2.1725V14.25H3.06536V9.16964ZM5.63678 14.25H6.43143V9.83929H5.63678V13.2143C5.45821 13.4643 5.28857 13.5893 5.12786 13.5893C5.02071 13.5893 4.95821 13.5268 4.94036 13.4018C4.9344 13.3839 4.93143 13.2798 4.93143 13.0893V9.83929H4.13678V13.3304C4.13678 13.622 4.16059 13.8393 4.20821 13.9821C4.27964 14.2024 4.45226 14.3125 4.72607 14.3125C5.01178 14.3125 5.31536 14.131 5.63678 13.7679V14.25ZM9.46714 12.9286V11.1696C9.46714 10.7351 9.44036 10.4405 9.38678 10.2857C9.28559 9.95238 9.07428 9.78572 8.75286 9.78572C8.45524 9.78572 8.17845 9.94643 7.9225 10.2679V8.33036H7.12786V14.25H7.9225V13.8214C8.19036 14.1488 8.46714 14.3125 8.75286 14.3125C9.07428 14.3125 9.28559 14.1488 9.38678 13.8214C9.44036 13.6607 9.46714 13.3631 9.46714 12.9286ZM12.485 12.8393V12.7232H11.6725C11.6725 13.0268 11.6665 13.2083 11.6546 13.2679C11.613 13.4821 11.4939 13.5893 11.2975 13.5893C11.0237 13.5893 10.8868 13.3839 10.8868 12.9732V12.1964H12.485V11.2768C12.485 10.8065 12.4046 10.4613 12.2439 10.2411C12.0118 9.9375 11.6963 9.78572 11.2975 9.78572C10.8927 9.78572 10.5743 9.9375 10.3421 10.2411C10.1755 10.4613 10.0921 10.8065 10.0921 11.2768V12.8214C10.0921 13.2917 10.1785 13.6369 10.3511 13.8571C10.5832 14.1607 10.9046 14.3125 11.3154 14.3125C11.7439 14.3125 12.0654 14.1548 12.2796 13.8393C12.3868 13.6786 12.4493 13.5179 12.4671 13.3571C12.479 13.3036 12.485 13.131 12.485 12.8393ZM7.05643 4.6875V2.8125C7.05643 2.40179 6.92845 2.19643 6.6725 2.19643C6.41655 2.19643 6.28857 2.40179 6.28857 2.8125V4.6875C6.28857 5.10417 6.41655 5.3125 6.6725 5.3125C6.92845 5.3125 7.05643 5.10417 7.05643 4.6875ZM13.4761 11.3929C13.4761 12.7857 13.3987 13.8274 13.2439 14.5179C13.1606 14.869 12.988 15.1637 12.7261 15.4018C12.4642 15.6399 12.1606 15.7768 11.8154 15.8125C10.7201 15.9375 9.06833 16 6.86 16C4.65167 16 2.99988 15.9375 1.90464 15.8125C1.5594 15.7768 1.25434 15.6399 0.989463 15.4018C0.724582 15.1637 0.553451 14.869 0.47607 14.5179C0.321308 13.8512 0.243927 12.8095 0.243927 11.3929C0.243927 10 0.321308 8.95833 0.47607 8.26786C0.559403 7.91667 0.732022 7.62202 0.993927 7.38393C1.25583 7.14583 1.56238 7.00595 1.91357 6.96429C3.00286 6.84524 4.65167 6.78571 6.86 6.78571C9.06833 6.78571 10.7201 6.84524 11.8154 6.96429C12.1606 7.00595 12.4657 7.14583 12.7305 7.38393C12.9954 7.62202 13.1665 7.91667 13.2439 8.26786C13.3987 8.93452 13.4761 9.97619 13.4761 11.3929ZM4.56536 0H5.47607L4.39571 3.5625V5.98214H3.50286V3.5625C3.41952 3.12202 3.23797 2.49107 2.95821 1.66964C2.73797 1.05655 2.54452 0.5 2.37786 0H3.32428L3.95821 2.34821L4.56536 0ZM7.86893 2.97321V4.53571C7.86893 5.01786 7.78559 5.36905 7.61893 5.58929C7.39274 5.89286 7.07726 6.04464 6.6725 6.04464C6.27369 6.04464 5.96119 5.89286 5.735 5.58929C5.56833 5.3631 5.485 5.01191 5.485 4.53571V2.97321C5.485 2.49702 5.56833 2.14881 5.735 1.92857C5.96119 1.625 6.27369 1.47321 6.6725 1.47321C7.07726 1.47321 7.39274 1.625 7.61893 1.92857C7.78559 2.14881 7.86893 2.49702 7.86893 2.97321ZM10.86 1.52679V5.98214H10.0475V5.49107C9.73202 5.86012 9.42548 6.04464 9.12786 6.04464C8.85405 6.04464 8.67845 5.93452 8.60107 5.71429C8.55345 5.57143 8.52964 5.34821 8.52964 5.04464V1.52679H9.34214V4.80357C9.34214 5 9.34512 5.10417 9.35107 5.11607C9.36893 5.24702 9.43143 5.3125 9.53857 5.3125C9.69928 5.3125 9.86893 5.18452 10.0475 4.92857V1.52679H10.86Z" fill="#F8F8F8"/>
</svg>
